999
Inkscape export via OpenSCAD DXF Export
  0
SECTION
  2
HEADER
  9
$ACADVER
  1
AC1014
  9
$HANDSEED
  5
FFFF
  9
$MEASUREMENT
 70
     1
  0
ENDSEC
  0
SECTION
  2
TABLES
  0
TABLE
  2
VPORT
  5
8
330
0
100
AcDbSymbolTable
 70
     4
  0
VPORT
  5
2E
330
8
100
AcDbSymbolTableRecord
100
AcDbViewportTableRecord
  2
*ACTIVE
 70
     0
 10
0.0
 20
0.0
 11
1.0
 21
1.0
 12
210.0
 22
148.5
 13
0.0
 23
0.0
 14
10.0
 24
10.0
 15
10.0
 25
10.0
 16
0.0
 26
0.0
 36
1.0
 17
0.0
 27
0.0
 37
0.0
 40
341.0
 41
1.24
 42
50.0
 43
0.0
 44
0.0
 50
0.0
 51
0.0
 71
     0
 72
   100
 73
     1
 74
     3
 75
     0
 76
     0
 77
     0
 78
     0
  0
ENDTAB
  0
TABLE
  2
LTYPE
  5
5
330
0
100
AcDbSymbolTable
 70
     1
  0
LTYPE
  5
14
330
5
100
AcDbSymbolTableRecord
100
AcDbLinetypeTableRecord
  2
BYBLOCK
 70
     0
  3

 72
    65
 73
     0
 40
0.0
  0
LTYPE
  5
15
330
5
100
AcDbSymbolTableRecord
100
AcDbLinetypeTableRecord
  2
BYLAYER
 70
     0
  3

 72
    65
 73
     0
 40
0.0
  0
LTYPE
  5
16
330
5
100
AcDbSymbolTableRecord
100
AcDbLinetypeTableRecord
  2
CONTINUOUS
 70
     0
  3
Solid line
 72
    65
 73
     0
 40
0.0
  0
ENDTAB
  0
TABLE
0
TABLE
2
LAYER
5
2
330
0
100
AcDbSymbolTable
70
1
0
LAYER
5
10
330
2
100
AcDbSymbolTableRecord
100
AcDbLayerTableRecord
2
Layer_1
70
0
62
7
6
CONTINUOUS
0
ENDTAB
0
ENDSEC
  0
ENDTAB
  0
TABLE
  2
STYLE
  5
3
330
0
100
AcDbSymbolTable
 70
     1
  0
STYLE
  5
11
330
3
100
AcDbSymbolTableRecord
100
AcDbTextStyleTableRecord
  2
STANDARD
 70
     0
 40
0.0
 41
1.0
 50
0.0
 71
     0
 42
2.5
  3
txt
  4

  0
ENDTAB
  0
TABLE
  2
VIEW
  5
6
330
0
100
AcDbSymbolTable
 70
     0
  0
ENDTAB
  0
TABLE
  2
UCS
  5
7
330
0
100
AcDbSymbolTable
 70
     0
  0
ENDTAB
  0
TABLE
  2
APPID
  5
9
330
0
100
AcDbSymbolTable
 70
     2
  0
APPID
  5
12
330
9
100
AcDbSymbolTableRecord
100
AcDbRegAppTableRecord
  2
ACAD
 70
     0
  0
ENDTAB
  0
TABLE
  2
DIMSTYLE
  5
A
330
0
100
AcDbSymbolTable
 70
     1
  0
DIMSTYLE
105
27
330
A
100
AcDbSymbolTableRecord
100
AcDbDimStyleTableRecord
  2
ISO-25
 70
     0
  3

  4

  5

  6

  7

 40
1.0
 41
2.5
 42
0.625
 43
3.75
 44
1.25
 45
0.0
 46
0.0
 47
0.0
 48
0.0
140
2.5
141
2.5
142
0.0
143
0.03937007874016
144
1.0
145
0.0
146
1.0
147
0.625
 71
     0
 72
     0
 73
     0
 74
     0
 75
     0
 76
     0
 77
     1
 78
     8
170
     0
171
     3
172
     1
173
     0
174
     0
175
     0
176
     0
177
     0
178
     0
270
     2
271
     2
272
     2
273
     2
274
     3
340
11
275
     0
280
     0
281
     0
282
     0
283
     0
284
     8
285
     0
286
     0
287
     3
288
     0
  0
ENDTAB
  0
TABLE
  2
BLOCK_RECORD
  5
1
330
0
100
AcDbSymbolTable
 70
     1
  0
BLOCK_RECORD
  5
1F
330
1
100
AcDbSymbolTableRecord
100
AcDbBlockTableRecord
  2
*MODEL_SPACE
  0
BLOCK_RECORD
  5
1B
330
1
100
AcDbSymbolTableRecord
100
AcDbBlockTableRecord
  2
*PAPER_SPACE
  0
ENDTAB
  0
ENDSEC
  0
SECTION
  2
BLOCKS
  0
BLOCK
  5
20
330
1F
100
AcDbEntity
  8
0
100
AcDbBlockBegin
  2
*MODEL_SPACE
 70
     0
 10
0.0
 20
0.0
 30
0.0
  3
*MODEL_SPACE
  1

  0
ENDBLK
  5
21
330
1F
100
AcDbEntity
  8
0
100
AcDbBlockEnd
  0
BLOCK
  5
1C
330
1B
100
AcDbEntity
 67
     1
  8
0
100
AcDbBlockBegin
  2
*PAPER_SPACE
  1

  0
ENDBLK
  5
1D
330
1B
100
AcDbEntity
 67
     1
  8
0
100
AcDbBlockEnd
  0
ENDSEC
  0
SECTION
  2
ENTITIES
0
DIMENSION
5
83
100
AcDbEntity
62
256
370
-1
6
ByLayer
1
total_width
3
Standard
70
0
71
5
72
1
41
1.0
100
AcDbAlignedDimension
13
0.000620
23
0.000000
33
0.0
14
215.356400
24
0.000000
34
0.0
50
0.000000
100
AcDbRotatedDimension
0
DIMENSION
5
83
100
AcDbEntity
62
256
370
-1
6
ByLayer
1
total_minx
3
Standard
70
0
71
5
72
1
41
1.0
100
AcDbAlignedDimension
13
0.000620
23
0.000000
33
0.0
14
0.000000
24
0.000000
34
0.0
50
0.000000
100
AcDbRotatedDimension
0
DIMENSION
5
83
100
AcDbEntity
62
256
370
-1
6
ByLayer
1
total_maxx
3
Standard
70
0
71
5
72
1
41
1.0
100
AcDbAlignedDimension
13
0.000000
23
0.000000
33
0.0
14
215.356400
24
0.000000
34
0.0
50
0.000000
100
AcDbRotatedDimension
0
DIMENSION
5
83
100
AcDbEntity
62
256
370
-1
6
ByLayer
1
total_height
3
Standard
70
0
71
5
72
1
41
1.0
100
AcDbAlignedDimension
13
0.000000
23
0.002492
33
0.0
14
0.000000
24
37.607364
34
0.0
50
90.000000
100
AcDbRotatedDimension
0
DIMENSION
5
83
100
AcDbEntity
62
256
370
-1
6
ByLayer
1
total_miny
3
Standard
70
0
71
5
72
1
41
1.0
100
AcDbAlignedDimension
13
0.002492
23
0.000000
33
0.0
14
0.000000
24
0.000000
34
0.0
50
0.000000
100
AcDbRotatedDimension
0
DIMENSION
5
83
100
AcDbEntity
62
256
370
-1
6
ByLayer
1
total_maxy
3
Standard
70
0
71
5
72
1
41
1.0
100
AcDbAlignedDimension
13
0.000000
23
0.000000
33
0.0
14
37.607364
24
0.000000
34
0.0
50
0.000000
100
AcDbRotatedDimension
0
DIMENSION
8
Layer_1
5
83
100
AcDbEntity
62
256
370
-1
6
ByLayer
1
Layer_1_width
3
Standard
70
0
71
5
72
1
41
1.0
100
AcDbAlignedDimension
13
0.000620
23
0.000000
33
0.0
14
215.356400
24
0.000000
34
0.0
50
0.000000
100
AcDbRotatedDimension
0
DIMENSION
8
Layer_1
5
83
100
AcDbEntity
62
256
370
-1
6
ByLayer
1
Layer_1_minx
3
Standard
70
0
71
5
72
1
41
1.0
100
AcDbAlignedDimension
13
0.000620
23
0.000000
33
0.0
14
0.000000
24
0.000000
34
0.0
50
0.000000
100
AcDbRotatedDimension
0
DIMENSION
8
Layer_1
5
83
100
AcDbEntity
62
256
370
-1
6
ByLayer
1
Layer_1_maxx
3
Standard
70
0
71
5
72
1
41
1.0
100
AcDbAlignedDimension
13
0.000000
23
0.000000
33
0.0
14
215.356400
24
0.000000
34
0.0
50
0.000000
100
AcDbRotatedDimension
0
DIMENSION
8
Layer_1
5
83
100
AcDbEntity
62
256
370
-1
6
ByLayer
1
Layer_1_height
3
Standard
70
0
71
5
72
1
41
1.0
100
AcDbAlignedDimension
13
0.000000
23
0.002492
33
0.0
14
0.000000
24
37.607364
34
0.0
50
90.000000
100
AcDbRotatedDimension
0
DIMENSION
8
Layer_1
5
83
100
AcDbEntity
62
256
370
-1
6
ByLayer
1
Layer_1_miny
3
Standard
70
0
71
5
72
1
41
1.0
100
AcDbAlignedDimension
13
0.002492
23
0.000000
33
0.0
14
0.000000
24
0.000000
34
0.0
50
0.000000
100
AcDbRotatedDimension
0
DIMENSION
8
Layer_1
5
83
100
AcDbEntity
62
256
370
-1
6
ByLayer
1
Layer_1_maxy
3
Standard
70
0
71
5
72
1
41
1.0
100
AcDbAlignedDimension
13
0.000000
23
0.000000
33
0.0
14
37.607364
24
0.000000
34
0.0
50
0.000000
100
AcDbRotatedDimension
62
0
0
LWPOLYLINE
100
AcDbPolyline
8
Layer_1
90
221
70
0
10
8.445937
20
0.002492
30
0.0
10
9.054904
20
1.074395
30
0.0
10
10.728662
20
3.441881
30
0.0
10
19.415224
20
15.131315
30
0.0
10
19.825711
20
15.907426
30
0.0
10
19.642170
20
16.105648
30
0.0
10
19.157509
20
16.176269
30
0.0
10
17.680602
20
15.930455
30
0.0
10
15.088726
20
15.325373
30
0.0
10
13.315075
20
14.976256
30
0.0
10
7.896029
20
9.513560
30
0.0
10
2.293391
20
4.050865
30
0.0
10
2.142132
20
4.266438
30
0.0
10
1.964488
20
5.131374
30
0.0
10
1.320005
20
10.118644
30
0.0
10
0.114977
20
19.714200
30
0.0
10
0.000620
20
21.193984
30
0.0
10
0.086022
20
21.977580
30
0.0
10
0.770629
20
22.206966
30
0.0
10
2.096915
20
22.354293
30
0.0
10
4.325530
20
22.511493
30
0.0
10
5.740542
20
22.917611
30
0.0
10
6.963036
20
23.899495
30
0.0
10
8.614097
20
25.783996
30
0.0
10
13.380473
20
31.475269
30
0.0
10
15.112449
20
33.459031
30
0.0
10
16.108379
20
34.394945
30
0.0
10
19.402377
20
34.836739
30
0.0
10
24.905711
20
35.374113
30
0.0
10
29.663678
20
35.837177
30
0.0
10
32.062567
20
36.049016
30
0.0
10
32.362723
20
35.957546
30
0.0
10
32.169002
20
35.531575
30
0.0
10
30.126821
20
33.443097
30
0.0
10
23.827624
20
27.353597
30
0.0
10
21.930560
20
25.373678
30
0.0
10
21.236822
20
24.475179
30
0.0
10
21.431478
20
24.226524
30
0.0
10
22.012933
20
24.223809
30
0.0
10
24.690496
20
24.506471
30
0.0
10
26.999802
20
24.824590
30
0.0
10
27.809027
20
25.570894
30
0.0
10
29.181879
20
27.145427
30
0.0
10
33.262601
20
32.007995
30
0.0
10
35.569093
20
34.706234
30
0.0
10
38.633513
20
35.034029
30
0.0
10
47.201266
20
35.819945
30
0.0
10
50.587933
20
36.093576
30
0.0
10
57.079044
20
36.663606
30
0.0
10
65.122377
20
37.360635
30
0.0
10
68.531734
20
37.607364
30
0.0
10
69.086407
20
37.556270
30
0.0
10
69.214599
20
37.391431
30
0.0
10
68.820811
20
37.075580
30
0.0
10
67.874044
20
36.658664
30
0.0
10
54.115710
20
31.426199
30
0.0
10
52.140155
20
30.690753
30
0.0
10
50.811946
20
30.108411
30
0.0
10
49.600155
20
29.406623
30
0.0
10
46.878276
20
27.179369
30
0.0
10
45.854543
20
26.171087
30
0.0
10
45.528882
20
25.667672
30
0.0
10
48.351104
20
25.778148
30
0.0
10
63.287933
20
27.454881
30
0.0
10
66.340840
20
27.748818
30
0.0
10
67.081914
20
27.656531
30
0.0
10
67.158649
20
27.485196
30
0.0
10
67.096383
20
27.188206
30
0.0
10
67.034419
20
26.876013
30
0.0
10
67.181137
20
26.725440
30
0.0
10
68.559031
20
26.781775
30
0.0
10
79.939044
20
28.043495
30
0.0
10
91.266366
20
29.231560
30
0.0
10
91.873465
20
29.354161
30
0.0
10
92.006536
20
29.705552
30
0.0
10
92.051588
20
29.935712
30
0.0
10
92.317122
20
30.102671
30
0.0
10
93.767933
20
30.340027
30
0.0
10
109.995710
20
32.112041
30
0.0
10
117.756821
20
32.958536
30
0.0
10
123.048488
20
33.532881
30
0.0
10
123.965697
20
33.557285
30
0.0
10
124.247933
20
33.320449
30
0.0
10
123.460356
20
32.286874
30
0.0
10
121.566821
20
30.297533
30
0.0
10
119.673287
20
28.294920
30
0.0
10
118.885710
20
27.229436
30
0.0
10
118.892233
20
27.085628
30
0.0
10
119.003635
20
26.986715
30
0.0
10
120.092081
20
26.943230
30
0.0
10
129.588576
20
27.611198
30
0.0
10
135.848231
20
28.198906
30
0.0
10
139.820924
20
28.337285
30
0.0
10
146.041705
20
28.616951
30
0.0
10
154.299505
20
29.424397
30
0.0
10
156.612324
20
29.549450
30
0.0
10
156.850676
20
29.379158
30
0.0
10
156.536511
20
29.043518
30
0.0
10
156.270146
20
28.748130
30
0.0
10
156.307957
20
28.533867
30
0.0
10
162.630155
20
29.036522
30
0.0
10
171.802377
20
30.015331
30
0.0
10
176.741266
20
30.564434
30
0.0
10
178.706139
20
30.673978
30
0.0
10
178.474918
20
29.974993
30
0.0
10
178.203425
20
29.305745
30
0.0
10
181.680203
20
29.621504
30
0.0
10
187.747933
20
30.299593
30
0.0
10
194.097933
20
30.990109
30
0.0
10
197.807943
20
31.386642
30
0.0
10
198.174707
20
31.345345
30
0.0
10
198.190155
20
31.172975
30
0.0
10
195.376803
20
27.574642
30
0.0
10
193.387266
20
25.107963
30
0.0
10
192.554581
20
23.874511
30
0.0
10
192.629574
20
23.717311
30
0.0
10
192.882164
20
23.632931
30
0.0
10
194.027377
20
23.667566
30
0.0
10
201.576821
20
24.236379
30
0.0
10
210.890155
20
24.932621
30
0.0
10
214.770710
20
25.212941
30
0.0
10
215.356400
20
25.139101
30
0.0
10
215.303495
20
24.931183
30
0.0
10
213.500710
20
24.274739
30
0.0
10
209.761266
20
23.236291
30
0.0
10
204.399044
20
21.689755
30
0.0
10
199.036821
20
20.148520
30
0.0
10
179.273866
20
14.523087
30
0.0
10
168.904367
20
11.793692
30
0.0
10
168.922436
20
12.013334
30
0.0
10
169.299852
20
12.461304
30
0.0
10
171.467966
20
14.380505
30
0.0
10
171.984953
20
14.926123
30
0.0
10
172.112274
20
15.294978
30
0.0
10
171.323131
20
15.322416
30
0.0
10
169.636702
20
15.047190
30
0.0
10
167.311299
20
14.556425
30
0.0
10
165.828178
20
15.283813
30
0.0
10
164.484921
20
15.835068
30
0.0
10
164.145171
20
15.781466
30
0.0
10
163.818164
20
15.534367
30
0.0
10
163.239189
20
15.197604
30
0.0
10
162.587085
20
15.057533
30
0.0
10
159.081532
20
14.664403
30
0.0
10
148.942377
20
13.361290
30
0.0
10
141.886821
20
12.494507
30
0.0
10
134.972377
20
11.661779
30
0.0
10
132.332245
20
11.223111
30
0.0
10
129.353347
20
10.543208
30
0.0
10
125.999677
20
9.825049
30
0.0
10
126.165114
20
10.215181
30
0.0
10
126.750374
20
10.965652
30
0.0
10
127.511007
20
11.930223
30
0.0
10
127.626906
20
12.227056
30
0.0
10
127.546757
20
12.415081
30
0.0
10
126.739008
20
12.509185
30
0.0
10
124.969143
20
12.301489
30
0.0
10
122.303687
20
11.918694
30
0.0
10
120.751064
20
12.782557
30
0.0
10
119.564226
20
13.354246
30
0.0
10
118.328392
20
13.594851
30
0.0
10
116.497000
20
13.536922
30
0.0
10
113.523488
20
13.213011
30
0.0
10
95.179044
20
11.095853
30
0.0
10
91.743632
20
10.656972
30
0.0
10
91.148220
20
10.635071
30
0.0
10
91.141547
20
11.088789
30
0.0
10
91.159451
20
11.506724
30
0.0
10
90.969691
20
11.670867
30
0.0
10
83.043488
20
9.360967
30
0.0
10
80.612140
20
8.664272
30
0.0
10
80.094441
20
8.581106
30
0.0
10
79.939044
20
8.651175
30
0.0
10
81.773488
20
10.563254
30
0.0
10
83.487277
20
12.405245
30
0.0
10
83.488351
20
12.700253
30
0.0
10
82.972933
20
12.673012
30
0.0
10
79.725324
20
11.905062
30
0.0
10
78.104599
20
11.400201
30
0.0
10
76.129044
20
10.544540
30
0.0
10
73.265558
20
9.375798
30
0.0
10
64.798891
20
5.866071
30
0.0
10
54.472318
20
1.500968
30
0.0
10
53.744509
20
1.200927
30
0.0
10
53.454975
20
1.322442
30
0.0
10
53.612471
20
1.824187
30
0.0
10
54.225752
20
2.664838
30
0.0
10
59.543558
20
9.095066
30
0.0
10
62.356594
20
12.696279
30
0.0
10
60.666543
20
12.468011
30
0.0
10
54.680155
20
11.248527
30
0.0
10
50.819101
20
10.365611
30
0.0
10
50.461720
20
10.517873
30
0.0
10
50.429291
20
10.758744
30
0.0
10
50.583330
20
10.962466
30
0.0
10
50.827275
20
11.207522
30
0.0
10
50.857250
20
11.446843
30
0.0
10
50.698499
20
11.602920
30
0.0
10
50.376266
20
11.598245
30
0.0
10
43.391266
20
9.688083
30
0.0
10
40.323183
20
8.861069
30
0.0
10
38.706653
20
8.483169
30
0.0
10
37.939543
20
8.420738
30
0.0
10
38.311629
20
8.988216
30
0.0
10
39.434019
20
10.124780
30
0.0
10
40.565446
20
11.252307
30
0.0
10
40.959255
20
11.798061
30
0.0
10
39.146198
20
11.528025
30
0.0
10
37.527218
20
11.206262
30
0.0
10
36.309099
20
11.171376
30
0.0
10
35.224339
20
11.451900
30
0.0
10
34.005433
20
12.076369
30
0.0
10
32.022675
20
13.134702
30
0.0
10
31.063445
20
12.554207
30
0.0
10
29.217518
20
11.034427
30
0.0
10
27.629644
20
9.716380
30
0.0
10
25.766836
20
8.505202
30
0.0
10
17.667693
20
4.349482
30
0.0
10
11.216412
20
1.217835
30
0.0
10
8.445937
20
0.002492
30
0.0
10
8.445937
20
0.002492
30
0.0
62
0
0
LWPOLYLINE
100
AcDbPolyline
8
Layer_1
90
225
70
0
10
28.997933
20
13.722986
30
0.0
10
32.917936
20
17.418988
30
0.0
10
35.045353
20
19.270174
30
0.0
10
36.336318
20
19.997865
30
0.0
10
37.746965
20
20.323382
30
0.0
10
39.896808
20
20.595432
30
0.0
10
40.121917
20
20.430538
30
0.0
10
39.788124
20
20.064062
30
0.0
10
35.958049
20
16.851607
30
0.0
10
34.518026
20
15.483647
30
0.0
10
33.947695
20
14.775311
30
0.0
10
34.319221
20
14.290630
30
0.0
10
35.205972
20
13.719803
30
0.0
10
36.459620
20
13.087628
30
0.0
10
40.066555
20
13.822687
30
0.0
10
44.919748
20
14.807862
30
0.0
10
46.318390
20
14.905596
30
0.0
10
46.035884
20
14.434654
30
0.0
10
45.142686
20
13.516374
30
0.0
10
44.204725
20
12.561573
30
0.0
10
43.814599
20
12.002822
30
0.0
10
44.193643
20
11.923882
30
0.0
10
45.155155
20
12.148855
30
0.0
10
47.342377
20
12.800385
30
0.0
10
52.563488
20
14.286434
30
0.0
10
57.053796
20
15.443461
30
0.0
10
56.701018
20
14.825374
30
0.0
10
56.258280
20
14.060600
30
0.0
10
56.221487
20
13.764897
30
0.0
10
56.343920
20
13.646422
30
0.0
10
61.902049
20
14.780563
30
0.0
10
67.594477
20
15.832758
30
0.0
10
67.617611
20
15.597136
30
0.0
10
67.328014
20
15.145716
30
0.0
10
66.390850
20
14.022966
30
0.0
10
63.229973
20
10.259755
30
0.0
10
60.498341
20
6.731976
30
0.0
10
60.628654
20
6.554412
30
0.0
10
61.013794
20
6.569867
30
0.0
10
62.564831
20
7.183391
30
0.0
10
63.897022
20
7.719754
30
0.0
10
65.660374
20
8.425310
30
0.0
10
67.365146
20
9.130865
30
0.0
10
68.794342
20
9.695311
30
0.0
10
71.343269
20
10.831286
30
0.0
10
73.812713
20
11.849951
30
0.0
10
75.851060
20
12.671299
30
0.0
10
78.002799
20
13.518417
30
0.0
10
80.221266
20
14.095093
30
0.0
10
86.761757
20
15.462420
30
0.0
10
88.928761
20
15.757444
30
0.0
10
88.625099
20
15.289148
30
0.0
10
87.684029
20
14.374234
30
0.0
10
86.757907
20
13.442570
30
0.0
10
86.490189
20
12.934000
30
0.0
10
87.567994
20
13.054336
30
0.0
10
89.876856
20
13.634718
30
0.0
10
93.909044
20
14.780541
30
0.0
10
96.294809
20
15.450889
30
0.0
10
97.934986
20
15.782331
30
0.0
10
97.171998
20
14.697135
30
0.0
10
96.561950
20
13.926467
30
0.0
10
96.344778
20
13.438496
30
0.0
10
96.519228
20
13.212229
30
0.0
10
97.084044
20
13.226673
30
0.0
10
101.529044
20
13.784135
30
0.0
10
107.314599
20
14.496272
30
0.0
10
113.382377
20
15.199878
30
0.0
10
117.909374
20
15.826415
30
0.0
10
118.978144
20
16.179987
30
0.0
10
119.648345
20
16.652687
30
0.0
10
122.789967
20
19.544421
30
0.0
10
124.603287
20
21.299822
30
0.0
10
125.303528
20
22.191860
30
0.0
10
124.371397
20
22.668247
30
0.0
10
122.260083
20
23.424319
30
0.0
10
119.309044
20
24.379556
30
0.0
10
116.518645
20
23.947533
30
0.0
10
113.061423
20
23.348150
30
0.0
10
112.578513
20
23.312687
30
0.0
10
112.394599
20
23.491657
30
0.0
10
113.383137
20
24.724718
30
0.0
10
115.759834
20
27.252770
30
0.0
10
118.091881
20
29.761747
30
0.0
10
118.973069
20
30.948950
30
0.0
10
118.605779
20
31.077008
30
0.0
10
117.936168
20
31.039529
30
0.0
10
115.216821
20
30.727304
30
0.0
10
103.927933
20
29.535285
30
0.0
10
102.936655
20
29.362953
30
0.0
10
103.504599
20
29.132918
30
0.0
10
106.679599
20
28.564505
30
0.0
10
108.323985
20
28.271436
30
0.0
10
109.007933
20
28.027510
30
0.0
10
107.800471
20
26.459764
30
0.0
10
104.619346
20
22.959755
30
0.0
10
101.639136
20
19.757309
30
0.0
10
100.503984
20
18.705175
30
0.0
10
100.085947
20
18.508408
30
0.0
10
99.700650
20
18.487309
30
0.0
10
99.405317
20
18.633405
30
0.0
10
99.564398
20
19.111094
30
0.0
10
101.877233
20
22.113089
30
0.0
10
103.829380
20
24.670458
30
0.0
10
104.514692
20
25.865123
30
0.0
10
103.811346
20
25.923562
30
0.0
10
101.947798
20
25.793925
30
0.0
10
94.473488
20
24.946016
30
0.0
10
88.970155
20
24.322748
30
0.0
10
85.724599
20
23.979314
30
0.0
10
84.313488
20
22.678953
30
0.0
10
80.503488
20
19.418787
30
0.0
10
77.401928
20
16.822703
30
0.0
10
76.517621
20
16.186422
30
0.0
10
76.206827
20
15.692511
30
0.0
10
75.728622
20
15.268294
30
0.0
10
74.780047
20
14.853546
30
0.0
10
73.792729
20
14.597767
30
0.0
10
73.198299
20
14.650461
30
0.0
10
73.987554
20
15.644388
30
0.0
10
76.129044
20
17.787573
30
0.0
10
79.837717
20
21.294053
30
0.0
10
82.114637
20
23.302423
30
0.0
10
83.664197
20
24.380925
30
0.0
10
85.190787
20
25.097800
30
0.0
10
87.036088
20
25.978921
30
0.0
10
87.414602
20
26.279698
30
0.0
10
87.431170
20
26.486497
30
0.0
10
86.380902
20
26.615793
30
0.0
10
83.890155
20
26.362077
30
0.0
10
80.320405
20
25.942449
30
0.0
10
77.099809
20
25.490112
30
0.0
10
75.405042
20
25.001673
30
0.0
10
72.517706
20
21.802557
30
0.0
10
69.809758
20
18.810911
30
0.0
10
68.030513
20
18.639766
30
0.0
10
65.334044
20
18.280020
30
0.0
10
64.686255
20
18.221144
30
0.0
10
64.416821
20
18.344431
30
0.0
10
66.956821
20
21.502109
30
0.0
10
69.273364
20
24.355525
30
0.0
10
69.455853
20
24.850785
30
0.0
10
69.050405
20
24.824395
30
0.0
10
67.170805
20
24.653089
30
0.0
10
66.333486
20
24.618259
30
0.0
10
65.717318
20
24.424978
30
0.0
10
65.075192
20
23.940058
30
0.0
10
64.159999
20
23.030311
30
0.0
10
61.030155
20
19.613695
30
0.0
10
59.511124
20
18.077965
30
0.0
10
58.907180
20
17.801613
30
0.0
10
58.137377
20
17.671992
30
0.0
10
57.150453
20
17.641550
30
0.0
10
56.796821
20
17.821397
30
0.0
10
57.453444
20
18.902099
30
0.0
10
58.500738
20
20.137533
30
0.0
10
60.266665
20
22.306552
30
0.0
10
62.156540
20
24.510431
30
0.0
10
62.443566
20
24.750374
30
0.0
10
62.468069
20
24.942047
30
0.0
10
61.820895
20
25.170313
30
0.0
10
60.397805
20
25.174689
30
0.0
10
58.381584
20
24.934634
30
0.0
10
49.741266
20
23.941858
30
0.0
10
41.005455
20
22.965199
30
0.0
10
39.030094
20
22.852409
30
0.0
10
39.175777
20
23.182299
30
0.0
10
39.742282
20
23.759189
30
0.0
10
44.603797
20
27.980833
30
0.0
10
47.738329
20
30.556828
30
0.0
10
49.664084
20
31.879022
30
0.0
10
51.575710
20
32.680728
30
0.0
10
53.495327
20
33.395362
30
0.0
10
54.247819
20
33.692668
30
0.0
10
54.520158
20
33.937276
30
0.0
10
54.360247
20
34.123362
30
0.0
10
53.815987
20
34.245099
30
0.0
10
51.766026
20
34.272225
30
0.0
10
48.753488
20
33.972050
30
0.0
10
41.937740
20
33.376462
30
0.0
10
36.815322
20
33.022022
30
0.0
10
33.047740
20
28.536876
30
0.0
10
28.817920
20
23.455778
30
0.0
10
28.291107
20
23.075050
30
0.0
10
26.751814
20
22.752256
30
0.0
10
16.622242
20
21.703951
30
0.0
10
14.886822
20
21.538518
30
0.0
10
20.900050
20
27.407205
30
0.0
10
25.105003
20
31.593854
30
0.0
10
26.770675
20
33.418496
30
0.0
10
23.636156
20
33.254096
30
0.0
10
18.368331
20
32.687414
30
0.0
10
17.417494
20
32.496895
30
0.0
10
16.263984
20
31.576658
30
0.0
10
13.930502
20
28.925843
30
0.0
10
9.439748
20
23.543589
30
0.0
10
8.069515
20
21.941597
30
0.0
10
7.152847
20
21.093459
30
0.0
10
6.339552
20
20.759983
30
0.0
10
5.279439
20
20.701978
30
0.0
10
3.985478
20
20.609408
30
0.0
10
2.919295
20
20.386848
30
0.0
10
2.202805
20
19.994748
30
0.0
10
2.154040
20
19.328515
30
0.0
10
2.475353
20
16.933828
30
0.0
10
2.763130
20
14.676051
30
0.0
10
3.178401
20
11.529755
30
0.0
10
3.705025
20
8.771492
30
0.0
10
5.095417
20
9.849883
30
0.0
10
8.134194
20
12.749105
30
0.0
10
12.346822
20
16.944973
30
0.0
10
18.508774
20
18.141339
30
0.0
10
24.802282
20
19.206149
30
0.0
10
23.468835
20
17.217513
30
0.0
10
20.078154
20
12.621064
30
0.0
10
16.609689
20
7.914739
30
0.0
10
15.089227
20
5.661939
30
0.0
10
15.319210
20
5.577153
30
0.0
10
16.220245
20
5.905645
30
0.0
10
20.424734
20
7.970921
30
0.0
10
23.570264
20
9.617254
30
0.0
10
25.567330
20
10.802452
30
0.0
10
27.136398
20
12.009901
30
0.0
10
28.997933
20
13.722986
30
0.0
10
28.997933
20
13.722986
30
0.0
62
0
0
LWPOLYLINE
100
AcDbPolyline
8
Layer_1
90
14
70
0
10
41.556821
20
17.159121
30
0.0
10
43.803274
20
19.545056
30
0.0
10
46.049729
20
21.746677
30
0.0
10
49.377163
20
21.943961
30
0.0
10
53.339599
20
22.298873
30
0.0
10
53.889380
20
22.324042
30
0.0
10
53.801005
20
21.942631
30
0.0
10
51.580559
20
19.774624
30
0.0
10
49.186519
20
17.675943
30
0.0
10
46.712226
20
17.481887
30
0.0
10
42.897377
20
17.131319
30
0.0
10
41.950610
20
17.074923
30
0.0
10
41.556821
20
17.159118
30
0.0
10
41.556821
20
17.159121
30
0.0
62
0
0
LWPOLYLINE
100
AcDbPolyline
8
Layer_1
90
14
70
0
10
107.998610
20
19.081291
30
0.0
10
109.123611
20
20.262175
30
0.0
10
109.948678
20
20.924041
30
0.0
10
111.625016
20
21.228244
30
0.0
10
114.662235
20
21.559662
30
0.0
10
117.616162
20
21.784266
30
0.0
10
119.042623
20
21.768027
30
0.0
10
118.691964
20
21.161466
30
0.0
10
117.631137
20
19.920894
30
0.0
10
116.064583
20
18.228830
30
0.0
10
113.594591
20
18.050237
30
0.0
10
108.892309
20
17.701227
30
0.0
10
106.660019
20
17.530807
30
0.0
10
107.998610
20
19.081291
30
0.0
62
0
0
LWPOLYLINE
100
AcDbPolyline
8
Layer_1
90
13
70
0
10
84.172377
20
18.100679
30
0.0
10
86.218488
20
20.318483
30
0.0
10
88.264599
20
22.319749
30
0.0
10
91.369044
20
22.640158
30
0.0
10
95.461266
20
22.948311
30
0.0
10
96.449044
20
22.936063
30
0.0
10
94.337951
20
20.936287
30
0.0
10
91.656840
20
18.578131
30
0.0
10
90.221905
20
18.286618
30
0.0
10
87.678619
20
18.057718
30
0.0
10
85.253328
20
17.969662
30
0.0
10
84.172377
20
18.100679
30
0.0
10
84.172377
20
18.100679
30
0.0
62
0
0
LWPOLYLINE
100
AcDbPolyline
8
Layer_1
90
102
70
0
10
135.395710
20
14.248159
30
0.0
10
141.293935
20
15.927184
30
0.0
10
142.196675
20
16.166817
30
0.0
10
142.628147
20
16.151475
30
0.0
10
142.606852
20
15.867665
30
0.0
10
142.151289
20
15.301892
30
0.0
10
141.322377
20
14.417360
30
0.0
10
142.451266
20
14.573017
30
0.0
10
152.329044
20
15.766123
30
0.0
10
161.729615
20
16.927893
30
0.0
10
162.534288
20
17.348336
30
0.0
10
163.585384
20
18.173999
30
0.0
10
164.498174
20
19.067997
30
0.0
10
164.887933
20
19.693448
30
0.0
10
164.577047
20
20.033834
30
0.0
10
163.829599
20
20.387828
30
0.0
10
160.231266
20
21.690241
30
0.0
10
156.337610
20
23.119931
30
0.0
10
155.449211
20
23.534290
30
0.0
10
155.214148
20
23.841082
30
0.0
10
157.424807
20
24.199735
30
0.0
10
164.887933
20
24.806956
30
0.0
10
167.348337
20
25.078584
30
0.0
10
167.672361
20
25.087879
30
0.0
10
167.854114
20
24.892115
30
0.0
10
167.874213
20
24.543559
30
0.0
10
167.713276
20
24.094478
30
0.0
10
167.520126
20
23.651767
30
0.0
10
167.644825
20
23.593554
30
0.0
10
169.044603
20
24.723644
30
0.0
10
171.379027
20
26.688419
30
0.0
10
172.088933
20
27.377451
30
0.0
10
172.150313
20
27.606969
30
0.0
10
172.007220
20
27.764142
30
0.0
10
171.081336
20
27.874411
30
0.0
10
169.258725
20
27.734179
30
0.0
10
164.041266
20
27.201891
30
0.0
10
152.289005
20
25.915641
30
0.0
10
151.276153
20
25.361679
30
0.0
10
149.936156
20
24.304309
30
0.0
10
148.820911
20
23.224039
30
0.0
10
148.520038
20
22.825473
30
0.0
10
148.482315
20
22.601373
30
0.0
10
153.951981
20
20.840978
30
0.0
10
159.714554
20
19.290867
30
0.0
10
159.959811
20
19.220421
30
0.0
10
159.975254
20
19.051054
30
0.0
10
158.935117
20
18.829363
30
0.0
10
156.642489
20
18.633119
30
0.0
10
150.282933
20
18.266205
30
0.0
10
147.107933
20
18.077418
30
0.0
10
147.107933
20
18.727884
30
0.0
10
147.031401
20
19.223310
30
0.0
10
146.527514
20
18.853078
30
0.0
10
145.643034
20
18.428069
30
0.0
10
144.058070
20
18.234043
30
0.0
10
142.169044
20
18.140280
30
0.0
10
146.657624
20
22.481984
30
0.0
10
149.752703
20
25.592839
30
0.0
10
150.890958
20
26.975270
30
0.0
10
149.083488
20
26.914352
30
0.0
10
144.991266
20
26.494589
30
0.0
10
142.451266
20
26.287330
30
0.0
10
140.052377
20
23.720844
30
0.0
10
136.242377
20
19.695870
30
0.0
10
134.831266
20
18.237385
30
0.0
10
131.893756
20
18.042569
30
0.0
10
128.154311
20
17.687365
30
0.0
10
127.587945
20
17.653248
30
0.0
10
127.352377
20
17.796452
30
0.0
10
128.492290
20
19.054887
30
0.0
10
131.232933
20
21.702083
30
0.0
10
134.001745
20
24.383837
30
0.0
10
135.209387
20
25.725361
30
0.0
10
135.159869
20
25.951765
30
0.0
10
134.375274
20
26.007560
30
0.0
10
127.692779
20
25.532846
30
0.0
10
125.596839
20
25.303696
30
0.0
10
124.570663
20
25.029461
30
0.0
10
124.460311
20
24.876388
30
0.0
10
124.619292
20
24.713187
30
0.0
10
125.747769
20
24.357921
30
0.0
10
127.682351
20
23.765920
30
0.0
10
127.652172
20
23.449373
30
0.0
10
127.102785
20
22.715482
30
0.0
10
124.177377
20
19.682244
30
0.0
10
120.296821
20
15.618591
30
0.0
10
121.355155
20
14.756707
30
0.0
10
122.306224
20
14.319379
30
0.0
10
123.522338
20
14.179186
30
0.0
10
125.455243
20
14.338932
30
0.0
10
128.556690
20
14.801422
30
0.0
10
131.354938
20
15.187016
30
0.0
10
132.626506
20
15.239699
30
0.0
10
132.576026
20
14.917117
30
0.0
10
132.195722
20
14.400483
30
0.0
10
131.690494
20
13.730611
30
0.0
10
131.713418
20
13.556040
30
0.0
10
131.947112
20
13.487089
30
0.0
10
133.128032
20
13.662182
30
0.0
10
135.395710
20
14.248159
30
0.0
10
135.395710
20
14.248159
30
0.0
62
0
0
LWPOLYLINE
100
AcDbPolyline
8
Layer_1
90
36
70
0
10
177.769870
20
16.187907
30
0.0
10
180.551266
20
17.016805
30
0.0
10
187.606821
20
19.013967
30
0.0
10
193.996946
20
20.908695
30
0.0
10
195.458783
20
21.457589
30
0.0
10
195.816942
20
21.758152
30
0.0
10
192.187028
20
21.521743
30
0.0
10
189.561487
20
21.332691
30
0.0
10
188.198424
20
21.358060
30
0.0
10
188.102297
20
21.604685
30
0.0
10
188.427737
20
22.222703
30
0.0
10
190.705675
20
25.116023
30
0.0
10
193.558770
20
28.814103
30
0.0
10
191.519703
20
28.708565
30
0.0
10
184.361266
20
27.905240
30
0.0
10
177.870155
20
27.194102
30
0.0
10
175.374269
20
26.832408
30
0.0
10
174.094177
20
26.303818
30
0.0
10
168.603295
20
21.765218
30
0.0
10
166.022937
20
19.446294
30
0.0
10
164.970468
20
18.332968
30
0.0
10
166.179873
20
17.374947
30
0.0
10
167.026734
20
16.960895
30
0.0
10
168.069926
20
16.873472
30
0.0
10
169.957872
20
17.155792
30
0.0
10
173.338992
20
17.850969
30
0.0
10
176.264139
20
18.410245
30
0.0
10
177.572326
20
18.547750
30
0.0
10
177.289220
20
18.084626
30
0.0
10
176.388488
20
17.199837
30
0.0
10
175.306462
20
16.158904
30
0.0
10
175.100966
20
15.851047
30
0.0
10
175.130523
20
15.676599
30
0.0
10
175.928912
20
15.702930
30
0.0
10
177.769870
20
16.187907
30
0.0
10
177.769870
20
16.187907
30
0.0
62
0
0
LWPOLYLINE
100
AcDbPolyline
8
Layer_1
90
14
70
0
10
172.790155
20
20.894369
30
0.0
10
174.836266
20
23.145841
30
0.0
10
176.882377
20
25.152247
30
0.0
10
179.441489
20
25.467114
30
0.0
10
183.627686
20
25.781978
30
0.0
10
185.254767
20
25.781978
30
0.0
10
182.933425
20
23.594755
30
0.0
10
181.389091
20
22.194956
30
0.0
10
180.129268
20
21.451992
30
0.0
10
178.423623
20
21.094956
30
0.0
10
175.541821
20
20.852941
30
0.0
10
173.594291
20
20.780429
30
0.0
10
172.790155
20
20.894369
30
0.0
10
172.790155
20
20.894369
30
0.0
62
0
0
LWPOLYLINE
100
AcDbPolyline
8
Layer_1
90
12
70
0
10
134.491315
20
20.794456
30
0.0
10
138.085991
20
24.698205
30
0.0
10
138.729566
20
25.531423
30
0.0
10
138.743010
20
25.781978
30
0.0
10
137.726625
20
25.004544
30
0.0
10
135.866457
20
23.266076
30
0.0
10
134.078575
20
21.457322
30
0.0
10
133.279044
20
20.469029
30
0.0
10
133.373823
20
20.196395
30
0.0
10
133.632811
20
20.166560
30
0.0
10
134.491315
20
20.794456
30
0.0
10
134.491315
20
20.794456
30
0.0
  0
ENDSEC
  0
SECTION
  2
OBJECTS
  0
DICTIONARY
  5
C
330
0
100
AcDbDictionary
  3
ACAD_GROUP
350
D
  3
ACAD_MLINESTYLE
350
17
  0
DICTIONARY
  5
D
330
C
100
AcDbDictionary
  0
DICTIONARY
  5
1A
330
C
100
AcDbDictionary
  0
DICTIONARY
  5
17
330
C
100
AcDbDictionary
  3
STANDARD
350
18
  0
DICTIONARY
  5
19
330
C
100
AcDbDictionary
  0
ENDSEC
  0
EOF
