<?xml version="1.0" encoding="UTF-8" standalone="no"?>
<!-- Created with Inkscape (http://www.inkscape.org/) -->

<svg
   xmlns:dc="http://purl.org/dc/elements/1.1/"
   xmlns:cc="http://creativecommons.org/ns#"
   xmlns:rdf="http://www.w3.org/1999/02/22-rdf-syntax-ns#"
   xmlns:svg="http://www.w3.org/2000/svg"
   xmlns="http://www.w3.org/2000/svg"
   xmlns:sodipodi="http://sodipodi.sourceforge.net/DTD/sodipodi-0.dtd"
   xmlns:inkscape="http://www.inkscape.org/namespaces/inkscape"
   width="210mm"
   height="261mm"
   viewBox="0 0 210 261"
   version="1.1"
   id="svg8"
   inkscape:version="0.92.4 (5da689c313, 2019-01-14)"
   sodipodi:docname="logo.svg">
  <defs
     id="defs2" />
  <sodipodi:namedview
     id="base"
     pagecolor="#ffffff"
     bordercolor="#666666"
     borderopacity="1.0"
     inkscape:pageopacity="0.0"
     inkscape:pageshadow="2"
     inkscape:zoom="0.35"
     inkscape:cx="-333.59783"
     inkscape:cy="1122.072"
     inkscape:document-units="mm"
     inkscape:current-layer="layer1"
     showgrid="false"
     inkscape:window-width="1916"
     inkscape:window-height="1033"
     inkscape:window-x="0"
     inkscape:window-y="20"
     inkscape:window-maximized="0" />
  <metadata
     id="metadata5">
    <rdf:RDF>
      <cc:Work
         rdf:about="">
        <dc:format>image/svg+xml</dc:format>
        <dc:type
           rdf:resource="http://purl.org/dc/dcmitype/StillImage" />
        <dc:title></dc:title>
      </cc:Work>
    </rdf:RDF>
  </metadata>
  <g
     inkscape:label="Layer 1"
     inkscape:groupmode="layer"
     id="layer1"
     transform="translate(0,-36)">
    <path
       style="fill:#000000;stroke-width:0.61048299"
       d="m 72.96773,287.01503 c -1.24939,-1.24939 -1.25083,-2.54687 -0.005,-4.87401 1.31862,-2.46391 3.54141,-8.99468 9.97355,-29.30317 8.22524,-25.96999 19.19967,-63.44538 19.94559,-68.11018 0.35671,-2.23071 0.28114,-2.39965 -1.06774,-2.38719 -0.7984,0.007 -2.68784,0.58282 -4.19878,1.27877 -1.51093,0.69596 -5.63171,2.50351 -9.15725,4.01676 -8.60623,3.69405 -32.74452,15.62534 -41.818064,20.67024 -4.029202,2.24022 -8.581299,4.70553 -10.115784,5.47847 -1.534466,0.77296 -4.41901,2.80682 -6.410062,4.5197 -7.067254,6.07993 -14.388612,8.32229 -19.143749,5.8633 -1.96634,-1.01687 -2.485519,-2.03086 -2.485519,-4.85465 0,-3.38078 3.004535,-6.01217 10.87444,-9.52387 3.798456,-1.69495 10.036199,-4.85864 13.861622,-7.03042 3.825424,-2.17178 7.083109,-3.94866 7.239285,-3.94866 0.156212,0 2.709392,-1.40573 5.673828,-3.12382 11.854933,-6.8708 37.827793,-19.629 52.937823,-26.00374 4.4033,-1.8577 8.31249,-3.6217 8.6871,-3.92001 0.3746,-0.29832 1.03235,-2.1975 1.46164,-4.22042 0.60411,-2.84665 0.61836,-4.03392 0.0633,-5.25255 -1.38165,-3.03234 0.63756,-5.11217 6.42714,-6.62016 7.17051,-1.86769 11.48616,-0.76626 13.37046,3.41235 0.60385,1.33911 1.39445,2.31069 1.75688,2.15905 0.3624,-0.15163 4.36763,-1.83439 8.90047,-3.73947 14.25491,-5.9911 40.33728,-16.18485 42.96287,-16.79113 3.75269,-0.86653 9.9047,-0.72983 12.3059,0.27347 3.33271,1.39249 5.16903,3.75832 5.16903,6.65954 0,2.26018 -0.36851,2.84185 -4.12075,6.5041 -2.26642,2.21208 -5.49435,4.69499 -7.17319,5.5176 -2.72483,1.33515 -3.87129,1.50009 -10.68345,1.53703 -4.19707,0.0228 -8.18045,0.33324 -8.85198,0.68997 -0.67155,0.35674 -8.36363,3.30443 -17.09353,6.55044 -8.7299,3.246 -17.79557,6.65861 -20.14594,7.58358 l -4.27337,1.68177 -1.29669,5.15707 c -7.30467,29.05151 -19.52353,59.32349 -33.99124,84.21277 -4.72919,8.13576 -15.16503,23.71755 -17.10592,25.54092 -1.36604,1.28335 -1.55515,1.31366 -2.47226,0.39655 z M 67.28238,166.52165 c -4.20425,-2.64293 -4.2372,-5.2722 -0.13565,-10.81976 5.39368,-7.29521 9.66427,-15.46519 17.03622,-32.59167 2.09564,-4.8686 4.61954,-10.45942 5.60867,-12.42405 0.98912,-1.96463 1.66649,-3.70398 1.50525,-3.86521 -0.16126,-0.16125 -3.26981,2.15822 -6.9079,5.15435 -22.64129,18.64604 -42.963249,32.0102 -61.451503,40.4118 -7.972922,3.62314 -11.400654,4.49135 -11.400654,2.88769 0,-1.17056 2.211877,-3.05481 13.430633,-11.44129 15.524467,-11.60517 41.458794,-32.42276 51.280574,-41.16309 11.82814,-10.525814 26.85814,-25.603754 32.26403,-32.366969 6.36899,-7.968121 7.4732,-10.62133 6.7058,-16.112666 -0.18157,-1.299483 0.23468,-1.617436 3.76397,-2.8749 5.80783,-2.069302 8.66831,-1.937522 11.29722,0.520456 2.90256,2.713801 4.16204,7.51273 2.9947,11.410489 -0.9901,3.305954 -2.23022,4.991251 -11.46772,15.584536 -3.98683,4.571967 -7.09636,8.465085 -6.91006,8.651379 0.90092,0.900928 32.17506,-12.530071 60.51672,-25.989529 4.34361,-2.06278 9.0359,-4.005632 10.4273,-4.317451 8.08287,-1.811412 15.39154,6.831147 11.43747,13.524888 -0.58695,0.993607 -2.43404,2.683672 -4.10464,3.755702 -2.95547,1.896511 -3.26872,1.95813 -11.60037,2.281906 -8.40433,0.326601 -8.69287,0.384624 -15.58344,3.134038 -3.8613,1.5407 -7.60879,2.980243 -8.32778,3.198986 -0.85526,0.260194 -1.3996,1.026801 -1.57428,2.217029 -0.21204,1.445119 -0.0687,1.757635 0.69677,1.519415 2.15119,-0.669404 10.85631,-2.15773 12.62094,-2.157827 2.52553,-1.41e-4 4.05105,1.753502 3.80046,4.368794 -0.1832,1.911427 -0.5723,2.235197 -6.12277,5.093588 -3.91235,2.014783 -7.18089,4.260383 -9.61511,6.605916 -2.02834,1.95443 -3.68788,3.70736 -3.68788,3.8954 0,0.18805 0.96734,0.18491 2.14965,-0.007 3.16675,-0.51389 5.52526,0.54195 6.68907,2.99454 0.5507,1.16048 0.83009,2.64925 0.6209,3.30837 -0.2341,0.73765 -2.75725,2.41933 -6.56261,4.37401 -5.81621,2.98759 -11.85666,7.79077 -10.40582,8.27438 0.91514,0.30505 11.40574,-2.41336 19.29561,-5.00002 8.00119,-2.62315 11.20458,-2.77204 13.74001,-0.63862 2.23433,1.88007 2.78726,3.89412 1.9365,7.05364 -0.4726,1.7551 -1.28061,2.83241 -2.91717,3.88944 -2.67263,1.72624 -3.71711,1.9506 -12.94697,2.7812 -5.5412,0.49865 -9.01446,1.26272 -16.48305,3.62603 -19.60408,6.2034 -42.1226,14.40406 -53.24134,19.38913 -2.8538,1.2795 -3.61163,1.94097 -4.17324,3.64268 -0.99845,3.02533 -3.36214,5.54873 -6.91827,7.38573 -2.63137,1.3593 -4.09064,1.64954 -9.23033,1.83589 -5.29135,0.19186 -6.36403,0.0585 -8.04995,-1.00141 z M 108.60361,139.701 c 7.86339,-4.73008 19.53547,-12.42111 19.53547,-12.87241 0,-0.23722 -3.61726,0.1982 -8.03835,0.96761 -8.57944,1.49309 -9.66567,1.34605 -9.66567,-1.30846 0,-1.64246 1.02382,-2.55946 5.79961,-5.19456 4.40191,-2.42882 13.95068,-9.47879 16.44462,-12.14129 1.9492,-2.08093 1.33408,-2.49267 -1.8917,-1.26623 -4.28065,1.6275 -10.02027,2.41043 -12.70845,1.73353 -2.82128,-0.71041 -5.60391,-3.06901 -4.92213,-4.17212 0.68807,-1.11335 3.86465,-2.54113 14.98207,-6.734045 l 10.68345,-4.029244 0.56009,-2.879818 c 0.30804,-1.583904 0.44109,-2.998826 0.29563,-3.14427 -0.14539,-0.145461 -3.41934,0.687149 -7.2754,1.850211 -3.85601,1.163055 -10.95768,3.191104 -15.78149,4.506762 -4.82379,1.315658 -8.83855,2.47455 -8.92168,2.57531 -0.083,0.100762 -1.13642,2.976564 -2.34059,6.390674 -1.2042,3.4141 -4.41832,11.60227 -7.1425,18.19593 -2.72419,6.59366 -5.34279,13.82748 -5.81917,16.07516 -0.91671,4.32543 -1.15952,9.41058 -0.48173,10.08838 0.42686,0.42685 8.95002,-3.98651 16.68792,-8.64112 z m 36.85571,-68.77157 c -0.18991,-0.495125 0.29936,-1.936128 1.08751,-3.202225 3.66835,-5.893086 4.34942,-8.99963 2.34866,-10.71273 -1.47701,-1.264671 -1.52447,-1.88761 -0.24153,-3.170544 2.68237,-2.682389 10.33854,-5.213067 15.76705,-5.211678 4.46636,0.0012 7.48927,1.360662 9.05388,4.071896 1.0014,1.735288 1.02811,2.146966 0.25762,3.968141 -1.08991,2.576219 -2.53222,3.810865 -5.60679,4.799576 -1.34307,0.431897 -6.61406,2.939085 -11.71328,5.571529 -5.09925,2.632443 -9.57202,4.786262 -9.93951,4.786262 -0.3675,0 -0.82362,-0.405104 -1.01361,-0.900227 z"
       id="path880"
       inkscape:connector-curvature="0" />
  </g>
</svg>
