solid OpenSCAD_Model
  facet normal -0 0 1
    outer loop
      vertex 10.4675 58.2073 13.5
      vertex 11.05 20 13.5
      vertex 11.05 60 13.5
    endloop
  endfacet
  facet normal 0 0 1
    outer loop
      vertex 10.4675 58.2073 13.5
      vertex 10.4675 21.7927 13.5
      vertex 11.05 20 13.5
    endloop
  endfacet
  facet normal -0 0 1
    outer loop
      vertex 8.9425 57.0993 13.5
      vertex 10.4675 21.7927 13.5
      vertex 10.4675 58.2073 13.5
    endloop
  endfacet
  facet normal 0 0 1
    outer loop
      vertex 8.9425 57.0993 13.5
      vertex 8.9425 22.9007 13.5
      vertex 10.4675 21.7927 13.5
    endloop
  endfacet
  facet normal -0 0 1
    outer loop
      vertex 7.0575 57.0993 13.5
      vertex 8.9425 22.9007 13.5
      vertex 8.9425 57.0993 13.5
    endloop
  endfacet
  facet normal 0 0 1
    outer loop
      vertex 7.0575 57.0993 13.5
      vertex 7.0575 22.9007 13.5
      vertex 8.9425 22.9007 13.5
    endloop
  endfacet
  facet normal 0 0 1
    outer loop
      vertex 5.5325 58.2073 13.5
      vertex 7.0575 22.9007 13.5
      vertex 7.0575 57.0993 13.5
    endloop
  endfacet
  facet normal 0 0 1
    outer loop
      vertex 5.5325 58.2073 13.5
      vertex 5.5325 21.7927 13.5
      vertex 7.0575 22.9007 13.5
    endloop
  endfacet
  facet normal 0 0 1
    outer loop
      vertex 4.95 60 13.5
      vertex 5.5325 21.7927 13.5
      vertex 5.5325 58.2073 13.5
    endloop
  endfacet
  facet normal 0 0 1
    outer loop
      vertex 5.5325 21.7927 13.5
      vertex 4.95 60 13.5
      vertex 4.95 20 13.5
    endloop
  endfacet
  facet normal 0 0 1
    outer loop
      vertex 16.6345 80 13.5
      vertex 11.05 60 13.5
      vertex 16.6345 -4.23855e-07 13.5
    endloop
  endfacet
  facet normal 0 0 1
    outer loop
      vertex 16.6345 80 13.5
      vertex 10.4675 61.7927 13.5
      vertex 11.05 60 13.5
    endloop
  endfacet
  facet normal 0 0 1
    outer loop
      vertex 16.6345 80 13.5
      vertex 8.9425 62.9007 13.5
      vertex 10.4675 61.7927 13.5
    endloop
  endfacet
  facet normal -0 0 1
    outer loop
      vertex 0 80 13.5
      vertex 8.9425 62.9007 13.5
      vertex 16.6345 80 13.5
    endloop
  endfacet
  facet normal 0 0 1
    outer loop
      vertex 8.9425 62.9007 13.5
      vertex 0 80 13.5
      vertex 7.0575 62.9007 13.5
    endloop
  endfacet
  facet normal 0 0 1
    outer loop
      vertex 4.95 60 13.5
      vertex 0 80 13.5
      vertex 4.95 20 13.5
    endloop
  endfacet
  facet normal 0 0 1
    outer loop
      vertex 5.5325 61.7927 13.5
      vertex 0 80 13.5
      vertex 4.95 60 13.5
    endloop
  endfacet
  facet normal 0 0 1
    outer loop
      vertex 7.0575 62.9007 13.5
      vertex 0 80 13.5
      vertex 5.5325 61.7927 13.5
    endloop
  endfacet
  facet normal -0 0 1
    outer loop
      vertex 11.05 20 13.5
      vertex 16.6345 -4.23855e-07 13.5
      vertex 11.05 60 13.5
    endloop
  endfacet
  facet normal -0 0 1
    outer loop
      vertex 10.4675 18.2073 13.5
      vertex 16.6345 -4.23855e-07 13.5
      vertex 11.05 20 13.5
    endloop
  endfacet
  facet normal -0 0 1
    outer loop
      vertex 8.9425 17.0993 13.5
      vertex 16.6345 -4.23855e-07 13.5
      vertex 10.4675 18.2073 13.5
    endloop
  endfacet
  facet normal 0 0 1
    outer loop
      vertex 0 -4.23855e-07 13.5
      vertex 8.9425 17.0993 13.5
      vertex 7.0575 17.0993 13.5
    endloop
  endfacet
  facet normal 0 0 1
    outer loop
      vertex 0 -4.23855e-07 13.5
      vertex 7.0575 17.0993 13.5
      vertex 5.5325 18.2073 13.5
    endloop
  endfacet
  facet normal 0 0 1
    outer loop
      vertex 8.9425 17.0993 13.5
      vertex 0 -4.23855e-07 13.5
      vertex 16.6345 -4.23855e-07 13.5
    endloop
  endfacet
  facet normal 0 0 1
    outer loop
      vertex 4.95 20 13.5
      vertex 0 -4.23855e-07 13.5
      vertex 5.5325 18.2073 13.5
    endloop
  endfacet
  facet normal 0 0 1
    outer loop
      vertex 0 -4.23855e-07 13.5
      vertex 4.95 20 13.5
      vertex 0 80 13.5
    endloop
  endfacet
  facet normal 0 0 1
    outer loop
      vertex 52.4675 21.7927 13.5
      vertex 80 23 13.5
      vertex 80 29.5833 13.5
    endloop
  endfacet
  facet normal 0 0 1
    outer loop
      vertex 80 23 13.5
      vertex 52.4675 21.7927 13.5
      vertex 53.05 20 13.5
    endloop
  endfacet
  facet normal 0 0 1
    outer loop
      vertex 80 29.5833 13.5
      vertex 50.9425 22.9007 13.5
      vertex 52.4675 21.7927 13.5
    endloop
  endfacet
  facet normal -0 0 1
    outer loop
      vertex 37.3655 29.5833 13.5
      vertex 50.9425 22.9007 13.5
      vertex 80 29.5833 13.5
    endloop
  endfacet
  facet normal 0 0 1
    outer loop
      vertex 50.9425 22.9007 13.5
      vertex 37.3655 29.5833 13.5
      vertex 49.0575 22.9007 13.5
    endloop
  endfacet
  facet normal 0 0 1
    outer loop
      vertex 37.3655 29.5833 13.5
      vertex 47.5325 21.7927 13.5
      vertex 49.0575 22.9007 13.5
    endloop
  endfacet
  facet normal 0 0 1
    outer loop
      vertex 37.3655 29.5833 13.5
      vertex 46.95 20 13.5
      vertex 47.5325 21.7927 13.5
    endloop
  endfacet
  facet normal 0 0 1
    outer loop
      vertex 46.95 20 13.5
      vertex 37.3655 -4.23855e-07 13.5
      vertex 47.5325 18.2073 13.5
    endloop
  endfacet
  facet normal 0 0 1
    outer loop
      vertex 47.5325 18.2073 13.5
      vertex 37.3655 -4.23855e-07 13.5
      vertex 44 -4.23855e-07 13.5
    endloop
  endfacet
  facet normal 0 0 1
    outer loop
      vertex 52.4675 18.2073 13.5
      vertex 80 23 13.5
      vertex 53.05 20 13.5
    endloop
  endfacet
  facet normal 0 0 1
    outer loop
      vertex 44 -4.23855e-07 13.5
      vertex 80 23 13.5
      vertex 52.4675 18.2073 13.5
    endloop
  endfacet
  facet normal 0 0 1
    outer loop
      vertex 44 -4.23855e-07 13.5
      vertex 52.4675 18.2073 13.5
      vertex 50.9425 17.0993 13.5
    endloop
  endfacet
  facet normal -0 0 1
    outer loop
      vertex 49.0575 17.0993 13.5
      vertex 44 -4.23855e-07 13.5
      vertex 50.9425 17.0993 13.5
    endloop
  endfacet
  facet normal 0 0 1
    outer loop
      vertex 47.5325 18.2073 13.5
      vertex 44 -4.23855e-07 13.5
      vertex 49.0575 17.0993 13.5
    endloop
  endfacet
  facet normal 0 0 1
    outer loop
      vertex 37.3655 -4.23855e-07 13.5
      vertex 46.95 20 13.5
      vertex 37.3655 29.5833 13.5
    endloop
  endfacet
  facet normal -0 0 1
    outer loop
      vertex 52.4675 58.2073 13.5
      vertex 80 57 13.5
      vertex 53.05 60 13.5
    endloop
  endfacet
  facet normal 0 0 1
    outer loop
      vertex 80 57 13.5
      vertex 52.4675 61.7927 13.5
      vertex 53.05 60 13.5
    endloop
  endfacet
  facet normal 0 0 1
    outer loop
      vertex 44 80 13.5
      vertex 52.4675 61.7927 13.5
      vertex 80 57 13.5
    endloop
  endfacet
  facet normal -0 0 1
    outer loop
      vertex 37.3655 80 13.5
      vertex 47.5325 61.7927 13.5
      vertex 44 80 13.5
    endloop
  endfacet
  facet normal 0 0 1
    outer loop
      vertex 49.0575 62.9007 13.5
      vertex 44 80 13.5
      vertex 47.5325 61.7927 13.5
    endloop
  endfacet
  facet normal 0 0 1
    outer loop
      vertex 50.9425 62.9007 13.5
      vertex 44 80 13.5
      vertex 49.0575 62.9007 13.5
    endloop
  endfacet
  facet normal 0 0 1
    outer loop
      vertex 52.4675 61.7927 13.5
      vertex 44 80 13.5
      vertex 50.9425 62.9007 13.5
    endloop
  endfacet
  facet normal 0 0 1
    outer loop
      vertex 80 57 13.5
      vertex 52.4675 58.2073 13.5
      vertex 80 50.4167 13.5
    endloop
  endfacet
  facet normal -0 0 1
    outer loop
      vertex 50.9425 57.0993 13.5
      vertex 80 50.4167 13.5
      vertex 52.4675 58.2073 13.5
    endloop
  endfacet
  facet normal 0 0 1
    outer loop
      vertex 37.3655 50.4167 13.5
      vertex 50.9425 57.0993 13.5
      vertex 49.0575 57.0993 13.5
    endloop
  endfacet
  facet normal 0 0 1
    outer loop
      vertex 47.5325 61.7927 13.5
      vertex 37.3655 80 13.5
      vertex 46.95 60 13.5
    endloop
  endfacet
  facet normal 0 0 1
    outer loop
      vertex 37.3655 50.4167 13.5
      vertex 46.95 60 13.5
      vertex 37.3655 80 13.5
    endloop
  endfacet
  facet normal 0 0 1
    outer loop
      vertex 50.9425 57.0993 13.5
      vertex 37.3655 50.4167 13.5
      vertex 80 50.4167 13.5
    endloop
  endfacet
  facet normal 0 0 1
    outer loop
      vertex 47.5325 58.2073 13.5
      vertex 37.3655 50.4167 13.5
      vertex 49.0575 57.0993 13.5
    endloop
  endfacet
  facet normal 0 0 1
    outer loop
      vertex 46.95 60 13.5
      vertex 37.3655 50.4167 13.5
      vertex 47.5325 58.2073 13.5
    endloop
  endfacet
  facet normal -1 0 0
    outer loop
      vertex 0 -4.23855e-07 0
      vertex 0 80 13.5
      vertex 0 80 0
    endloop
  endfacet
  facet normal -1 -0 0
    outer loop
      vertex 0 80 13.5
      vertex 0 -4.23855e-07 0
      vertex 0 -4.23855e-07 13.5
    endloop
  endfacet
  facet normal 0 0 -1
    outer loop
      vertex 10.4675 58.2073 0
      vertex 47.5325 58.2073 0
      vertex 10.4675 21.7927 0
    endloop
  endfacet
  facet normal 0 0 -1
    outer loop
      vertex 47.5325 58.2073 0
      vertex 10.4675 58.2073 0
      vertex 11.05 60 0
    endloop
  endfacet
  facet normal 0 0 -1
    outer loop
      vertex 8.9425 22.9007 0
      vertex 10.4675 58.2073 0
      vertex 10.4675 21.7927 0
    endloop
  endfacet
  facet normal 0 0 -1
    outer loop
      vertex 8.9425 22.9007 0
      vertex 8.9425 57.0993 0
      vertex 10.4675 58.2073 0
    endloop
  endfacet
  facet normal 0 0 -1
    outer loop
      vertex 7.0575 22.9007 0
      vertex 8.9425 57.0993 0
      vertex 8.9425 22.9007 0
    endloop
  endfacet
  facet normal 0 0 -1
    outer loop
      vertex 7.0575 22.9007 0
      vertex 7.0575 57.0993 0
      vertex 8.9425 57.0993 0
    endloop
  endfacet
  facet normal 0 0 -1
    outer loop
      vertex 5.5325 21.7927 0
      vertex 7.0575 57.0993 0
      vertex 7.0575 22.9007 0
    endloop
  endfacet
  facet normal 0 0 -1
    outer loop
      vertex 5.5325 21.7927 0
      vertex 5.5325 58.2073 0
      vertex 7.0575 57.0993 0
    endloop
  endfacet
  facet normal 0 0 -1
    outer loop
      vertex 4.95 20 0
      vertex 5.5325 58.2073 0
      vertex 5.5325 21.7927 0
    endloop
  endfacet
  facet normal -0 0 -1
    outer loop
      vertex 5.5325 58.2073 0
      vertex 4.95 20 0
      vertex 4.95 60 0
    endloop
  endfacet
  facet normal 0 0 -1
    outer loop
      vertex 10.4675 61.7927 0
      vertex 47.5325 61.7927 0
      vertex 11.05 60 0
    endloop
  endfacet
  facet normal 0 0 -1
    outer loop
      vertex 47.5325 61.7927 0
      vertex 10.4675 61.7927 0
      vertex 44 80 0
    endloop
  endfacet
  facet normal 0 0 -1
    outer loop
      vertex 8.9425 62.9007 0
      vertex 44 80 0
      vertex 10.4675 61.7927 0
    endloop
  endfacet
  facet normal 0 0 -1
    outer loop
      vertex 0 80 0
      vertex 8.9425 62.9007 0
      vertex 7.0575 62.9007 0
    endloop
  endfacet
  facet normal 0 0 -1
    outer loop
      vertex 8.9425 62.9007 0
      vertex 0 80 0
      vertex 44 80 0
    endloop
  endfacet
  facet normal 0 0 -1
    outer loop
      vertex 5.5325 61.7927 0
      vertex 0 80 0
      vertex 7.0575 62.9007 0
    endloop
  endfacet
  facet normal 0 0 -1
    outer loop
      vertex 4.95 60 0
      vertex 0 80 0
      vertex 5.5325 61.7927 0
    endloop
  endfacet
  facet normal 0 0 -1
    outer loop
      vertex 0 80 0
      vertex 4.95 60 0
      vertex 0 -4.23855e-07 0
    endloop
  endfacet
  facet normal 0 0 -1
    outer loop
      vertex 52.4675 58.2073 0
      vertex 80 57 0
      vertex 52.4675 21.7927 0
    endloop
  endfacet
  facet normal 0 0 -1
    outer loop
      vertex 80 57 0
      vertex 52.4675 58.2073 0
      vertex 53.05 60 0
    endloop
  endfacet
  facet normal 0 0 -1
    outer loop
      vertex 50.9425 22.9007 0
      vertex 52.4675 58.2073 0
      vertex 52.4675 21.7927 0
    endloop
  endfacet
  facet normal 0 0 -1
    outer loop
      vertex 50.9425 22.9007 0
      vertex 50.9425 57.0993 0
      vertex 52.4675 58.2073 0
    endloop
  endfacet
  facet normal 0 0 -1
    outer loop
      vertex 49.0575 22.9007 0
      vertex 50.9425 57.0993 0
      vertex 50.9425 22.9007 0
    endloop
  endfacet
  facet normal 0 0 -1
    outer loop
      vertex 49.0575 22.9007 0
      vertex 49.0575 57.0993 0
      vertex 50.9425 57.0993 0
    endloop
  endfacet
  facet normal 0 0 -1
    outer loop
      vertex 47.5325 21.7927 0
      vertex 49.0575 57.0993 0
      vertex 49.0575 22.9007 0
    endloop
  endfacet
  facet normal 0 0 -1
    outer loop
      vertex 47.5325 21.7927 0
      vertex 47.5325 58.2073 0
      vertex 49.0575 57.0993 0
    endloop
  endfacet
  facet normal 0 0 -1
    outer loop
      vertex 11.05 20 0
      vertex 47.5325 21.7927 0
      vertex 46.95 20 0
    endloop
  endfacet
  facet normal 0 0 -1
    outer loop
      vertex 10.4675 21.7927 0
      vertex 47.5325 21.7927 0
      vertex 11.05 20 0
    endloop
  endfacet
  facet normal 0 0 -1
    outer loop
      vertex 52.4675 21.7927 0
      vertex 80 23 0
      vertex 53.05 20 0
    endloop
  endfacet
  facet normal 0 0 -1
    outer loop
      vertex 80 23 0
      vertex 52.4675 18.2073 0
      vertex 53.05 20 0
    endloop
  endfacet
  facet normal 0 0 -1
    outer loop
      vertex 80 23 0
      vertex 44 -4.23855e-07 0
      vertex 52.4675 18.2073 0
    endloop
  endfacet
  facet normal 0 0 -1
    outer loop
      vertex 47.5325 18.2073 0
      vertex 10.4675 18.2073 0
      vertex 46.95 20 0
    endloop
  endfacet
  facet normal 0 0 -1
    outer loop
      vertex 10.4675 18.2073 0
      vertex 47.5325 18.2073 0
      vertex 44 -4.23855e-07 0
    endloop
  endfacet
  facet normal -0 0 -1
    outer loop
      vertex 49.0575 17.0993 0
      vertex 44 -4.23855e-07 0
      vertex 47.5325 18.2073 0
    endloop
  endfacet
  facet normal -0 0 -1
    outer loop
      vertex 50.9425 17.0993 0
      vertex 44 -4.23855e-07 0
      vertex 49.0575 17.0993 0
    endloop
  endfacet
  facet normal 0 0 -1
    outer loop
      vertex 52.4675 18.2073 0
      vertex 44 -4.23855e-07 0
      vertex 50.9425 17.0993 0
    endloop
  endfacet
  facet normal -0 0 -1
    outer loop
      vertex 80 23 0
      vertex 52.4675 21.7927 0
      vertex 80 57 0
    endloop
  endfacet
  facet normal 0 0 -1
    outer loop
      vertex 52.4675 61.7927 0
      vertex 80 57 0
      vertex 53.05 60 0
    endloop
  endfacet
  facet normal 0 0 -1
    outer loop
      vertex 44 80 0
      vertex 52.4675 61.7927 0
      vertex 50.9425 62.9007 0
    endloop
  endfacet
  facet normal 0 0 -1
    outer loop
      vertex 52.4675 61.7927 0
      vertex 44 80 0
      vertex 80 57 0
    endloop
  endfacet
  facet normal 0 0 -1
    outer loop
      vertex 49.0575 62.9007 0
      vertex 44 80 0
      vertex 50.9425 62.9007 0
    endloop
  endfacet
  facet normal 0 0 -1
    outer loop
      vertex 47.5325 61.7927 0
      vertex 44 80 0
      vertex 49.0575 62.9007 0
    endloop
  endfacet
  facet normal 0 0 -1
    outer loop
      vertex 11.05 60 0
      vertex 47.5325 61.7927 0
      vertex 46.95 60 0
    endloop
  endfacet
  facet normal 0 0 -1
    outer loop
      vertex 47.5325 21.7927 0
      vertex 10.4675 21.7927 0
      vertex 47.5325 58.2073 0
    endloop
  endfacet
  facet normal 0 0 -1
    outer loop
      vertex 47.5325 58.2073 0
      vertex 11.05 60 0
      vertex 46.95 60 0
    endloop
  endfacet
  facet normal -0 0 -1
    outer loop
      vertex 46.95 20 0
      vertex 10.4675 18.2073 0
      vertex 11.05 20 0
    endloop
  endfacet
  facet normal 0 0 -1
    outer loop
      vertex 44 -4.23855e-07 0
      vertex 8.9425 17.0993 0
      vertex 10.4675 18.2073 0
    endloop
  endfacet
  facet normal 0 0 -1
    outer loop
      vertex 0 -4.23855e-07 0
      vertex 8.9425 17.0993 0
      vertex 44 -4.23855e-07 0
    endloop
  endfacet
  facet normal -0 0 -1
    outer loop
      vertex 4.95 20 0
      vertex 0 -4.23855e-07 0
      vertex 4.95 60 0
    endloop
  endfacet
  facet normal -0 0 -1
    outer loop
      vertex 5.5325 18.2073 0
      vertex 0 -4.23855e-07 0
      vertex 4.95 20 0
    endloop
  endfacet
  facet normal -0 0 -1
    outer loop
      vertex 7.0575 17.0993 0
      vertex 0 -4.23855e-07 0
      vertex 5.5325 18.2073 0
    endloop
  endfacet
  facet normal -0 0 -1
    outer loop
      vertex 8.9425 17.0993 0
      vertex 0 -4.23855e-07 0
      vertex 7.0575 17.0993 0
    endloop
  endfacet
  facet normal 0.538389 -0.842696 0
    outer loop
      vertex 44 -4.23855e-07 0
      vertex 80 23 13.5
      vertex 44 -4.23855e-07 13.5
    endloop
  endfacet
  facet normal 0.538389 -0.842696 0
    outer loop
      vertex 80 23 13.5
      vertex 44 -4.23855e-07 0
      vertex 80 23 0
    endloop
  endfacet
  facet normal 0.538389 0.842696 -0
    outer loop
      vertex 80 57 0
      vertex 44 80 13.5
      vertex 80 57 13.5
    endloop
  endfacet
  facet normal 0.538389 0.842696 0
    outer loop
      vertex 44 80 13.5
      vertex 80 57 0
      vertex 44 80 0
    endloop
  endfacet
  facet normal 0 -1 0
    outer loop
      vertex 0 -4.23855e-07 13.5
      vertex 16.951 -4.23855e-07 12.5259
      vertex 16.6345 -4.23855e-07 13.5
    endloop
  endfacet
  facet normal 0 -1 0
    outer loop
      vertex 0 -4.23855e-07 0
      vertex 16.951 -4.23855e-07 12.5259
      vertex 0 -4.23855e-07 13.5
    endloop
  endfacet
  facet normal 0 -1 -0
    outer loop
      vertex 16.951 -4.23855e-07 12.5259
      vertex 0 -4.23855e-07 0
      vertex 18.1008 -4.23855e-07 10.5344
    endloop
  endfacet
  facet normal 0 -1 -0
    outer loop
      vertex 18.1008 -4.23855e-07 10.5344
      vertex 0 -4.23855e-07 0
      vertex 19.6396 -4.23855e-07 8.82541
    endloop
  endfacet
  facet normal 0 -1 -0
    outer loop
      vertex 19.6396 -4.23855e-07 8.82541
      vertex 0 -4.23855e-07 0
      vertex 21.5 -4.23855e-07 7.47372
    endloop
  endfacet
  facet normal 0 -1 0
    outer loop
      vertex 44 -4.23855e-07 0
      vertex 25.8502 -4.23855e-07 6.06026
      vertex 0 -4.23855e-07 0
    endloop
  endfacet
  facet normal 0 -1 -0
    outer loop
      vertex 23.6008 -4.23855e-07 6.53838
      vertex 0 -4.23855e-07 0
      vertex 25.8502 -4.23855e-07 6.06026
    endloop
  endfacet
  facet normal 0 -1 -0
    outer loop
      vertex 21.5 -4.23855e-07 7.47372
      vertex 0 -4.23855e-07 0
      vertex 23.6008 -4.23855e-07 6.53838
    endloop
  endfacet
  facet normal 0 -1 0
    outer loop
      vertex 37.049 -4.23855e-07 12.5259
      vertex 44 -4.23855e-07 13.5
      vertex 37.3655 -4.23855e-07 13.5
    endloop
  endfacet
  facet normal 0 -1 0
    outer loop
      vertex 35.8992 -4.23855e-07 10.5344
      vertex 44 -4.23855e-07 13.5
      vertex 37.049 -4.23855e-07 12.5259
    endloop
  endfacet
  facet normal 0 -1 0
    outer loop
      vertex 44 -4.23855e-07 0
      vertex 35.8992 -4.23855e-07 10.5344
      vertex 34.3604 -4.23855e-07 8.82541
    endloop
  endfacet
  facet normal 0 -1 0
    outer loop
      vertex 44 -4.23855e-07 0
      vertex 34.3604 -4.23855e-07 8.82541
      vertex 32.5 -4.23855e-07 7.47372
    endloop
  endfacet
  facet normal 0 -1 0
    outer loop
      vertex 25.8502 -4.23855e-07 6.06026
      vertex 44 -4.23855e-07 0
      vertex 28.1498 -4.23855e-07 6.06026
    endloop
  endfacet
  facet normal 0 -1 0
    outer loop
      vertex 35.8992 -4.23855e-07 10.5344
      vertex 44 -4.23855e-07 0
      vertex 44 -4.23855e-07 13.5
    endloop
  endfacet
  facet normal 0 -1 0
    outer loop
      vertex 30.3992 -4.23855e-07 6.53838
      vertex 44 -4.23855e-07 0
      vertex 32.5 -4.23855e-07 7.47372
    endloop
  endfacet
  facet normal 0 -1 0
    outer loop
      vertex 28.1498 -4.23855e-07 6.06026
      vertex 44 -4.23855e-07 0
      vertex 30.3992 -4.23855e-07 6.53838
    endloop
  endfacet
  facet normal 0 1 0
    outer loop
      vertex 44 80 13.5
      vertex 37.049 80 12.5259
      vertex 37.3655 80 13.5
    endloop
  endfacet
  facet normal 0 1 0
    outer loop
      vertex 44 80 13.5
      vertex 35.8992 80 10.5344
      vertex 37.049 80 12.5259
    endloop
  endfacet
  facet normal 0 1 -0
    outer loop
      vertex 44 80 0
      vertex 35.8992 80 10.5344
      vertex 44 80 13.5
    endloop
  endfacet
  facet normal 0 1 0
    outer loop
      vertex 35.8992 80 10.5344
      vertex 44 80 0
      vertex 34.3604 80 8.82541
    endloop
  endfacet
  facet normal 0 1 0
    outer loop
      vertex 28.1498 80 6.06026
      vertex 44 80 0
      vertex 25.8502 80 6.06026
    endloop
  endfacet
  facet normal 0 1 0
    outer loop
      vertex 30.3992 80 6.53838
      vertex 44 80 0
      vertex 28.1498 80 6.06026
    endloop
  endfacet
  facet normal 0 1 0
    outer loop
      vertex 32.5 80 7.47372
      vertex 44 80 0
      vertex 30.3992 80 6.53838
    endloop
  endfacet
  facet normal 0 1 0
    outer loop
      vertex 34.3604 80 8.82541
      vertex 44 80 0
      vertex 32.5 80 7.47372
    endloop
  endfacet
  facet normal 0 1 0
    outer loop
      vertex 16.951 80 12.5259
      vertex 0 80 13.5
      vertex 16.6345 80 13.5
    endloop
  endfacet
  facet normal 0 1 0
    outer loop
      vertex 0 80 0
      vertex 16.951 80 12.5259
      vertex 18.1008 80 10.5344
    endloop
  endfacet
  facet normal 0 1 0
    outer loop
      vertex 0 80 0
      vertex 18.1008 80 10.5344
      vertex 19.6396 80 8.82541
    endloop
  endfacet
  facet normal 0 1 0
    outer loop
      vertex 0 80 0
      vertex 19.6396 80 8.82541
      vertex 21.5 80 7.47372
    endloop
  endfacet
  facet normal 0 1 0
    outer loop
      vertex 0 80 0
      vertex 21.5 80 7.47372
      vertex 23.6008 80 6.53838
    endloop
  endfacet
  facet normal 0 1 0
    outer loop
      vertex 0 80 0
      vertex 25.8502 80 6.06026
      vertex 44 80 0
    endloop
  endfacet
  facet normal 0 1 0
    outer loop
      vertex 25.8502 80 6.06026
      vertex 0 80 0
      vertex 23.6008 80 6.53838
    endloop
  endfacet
  facet normal 0 1 0
    outer loop
      vertex 16.951 80 12.5259
      vertex 0 80 0
      vertex 0 80 13.5
    endloop
  endfacet
  facet normal 1 0 0
    outer loop
      vertex 80 49.5263 11.5
      vertex 80 57 13.5
      vertex 80 50.4167 13.5
    endloop
  endfacet
  facet normal 1 0 0
    outer loop
      vertex 80 57 13.5
      vertex 80 49.5263 11.5
      vertex 80 57 0
    endloop
  endfacet
  facet normal 1 -0 0
    outer loop
      vertex 80 48.1746 9.63956
      vertex 80 57 0
      vertex 80 49.5263 11.5
    endloop
  endfacet
  facet normal 1 -0 0
    outer loop
      vertex 80 46.4656 8.10081
      vertex 80 57 0
      vertex 80 48.1746 9.63956
    endloop
  endfacet
  facet normal 1 -0 0
    outer loop
      vertex 80 44.4741 6.951
      vertex 80 57 0
      vertex 80 46.4656 8.10081
    endloop
  endfacet
  facet normal 1 -0 0
    outer loop
      vertex 80 42.287 6.24038
      vertex 80 57 0
      vertex 80 44.4741 6.951
    endloop
  endfacet
  facet normal 1 -0 0
    outer loop
      vertex 80 40 6
      vertex 80 57 0
      vertex 80 42.287 6.24038
    endloop
  endfacet
  facet normal 1 0 0
    outer loop
      vertex 80 23 0
      vertex 80 40 6
      vertex 80 37.713 6.24038
    endloop
  endfacet
  facet normal 1 -0 0
    outer loop
      vertex 80 23 13.5
      vertex 80 30.4737 11.5
      vertex 80 29.5833 13.5
    endloop
  endfacet
  facet normal 1 0 0
    outer loop
      vertex 80 23 0
      vertex 80 30.4737 11.5
      vertex 80 23 13.5
    endloop
  endfacet
  facet normal 1 0 0
    outer loop
      vertex 80 30.4737 11.5
      vertex 80 23 0
      vertex 80 31.8254 9.63956
    endloop
  endfacet
  facet normal 1 0 0
    outer loop
      vertex 80 31.8254 9.63956
      vertex 80 23 0
      vertex 80 33.5344 8.10081
    endloop
  endfacet
  facet normal 1 0 0
    outer loop
      vertex 80 40 6
      vertex 80 23 0
      vertex 80 57 0
    endloop
  endfacet
  facet normal 1 0 0
    outer loop
      vertex 80 35.5259 6.951
      vertex 80 23 0
      vertex 80 37.713 6.24038
    endloop
  endfacet
  facet normal 1 0 0
    outer loop
      vertex 80 33.5344 8.10081
      vertex 80 23 0
      vertex 80 35.5259 6.951
    endloop
  endfacet
  facet normal -0.951057 0 0.309017
    outer loop
      vertex 37.049 -4.23855e-07 12.5259
      vertex 37.3655 29.5833 13.5
      vertex 37.049 30.017 12.5259
    endloop
  endfacet
  facet normal -0.951057 0 0.309017
    outer loop
      vertex 37.3655 29.5833 13.5
      vertex 37.049 -4.23855e-07 12.5259
      vertex 37.3655 -4.23855e-07 13.5
    endloop
  endfacet
  facet normal -0.951057 0 0.309017
    outer loop
      vertex 37.049 80 12.5259
      vertex 37.3655 50.4167 13.5
      vertex 37.3655 80 13.5
    endloop
  endfacet
  facet normal -0.951057 0 0.309017
    outer loop
      vertex 37.3655 50.4167 13.5
      vertex 37.049 80 12.5259
      vertex 37.049 49.983 12.5259
    endloop
  endfacet
  facet normal -0.866024 0 0.500002
    outer loop
      vertex 35.8992 -4.23855e-07 10.5344
      vertex 36.4567 30.4737 11.5
      vertex 35.8992 31.1753 10.5344
    endloop
  endfacet
  facet normal -0.866026 1.02029e-07 0.499999
    outer loop
      vertex 35.8992 -4.23855e-07 10.5344
      vertex 37.049 30.017 12.5259
      vertex 36.4567 30.4737 11.5
    endloop
  endfacet
  facet normal -0.866025 0 0.500001
    outer loop
      vertex 37.049 30.017 12.5259
      vertex 35.8992 -4.23855e-07 10.5344
      vertex 37.049 -4.23855e-07 12.5259
    endloop
  endfacet
  facet normal -0.866025 0 0.500001
    outer loop
      vertex 35.8992 80 10.5344
      vertex 37.049 49.983 12.5259
      vertex 37.049 80 12.5259
    endloop
  endfacet
  facet normal -0.866026 -1.02029e-07 0.499999
    outer loop
      vertex 35.8992 80 10.5344
      vertex 36.4567 49.5263 11.5
      vertex 37.049 49.983 12.5259
    endloop
  endfacet
  facet normal -0.866024 0 0.500002
    outer loop
      vertex 36.4567 49.5263 11.5
      vertex 35.8992 80 10.5344
      vertex 35.8992 48.8247 10.5344
    endloop
  endfacet
  facet normal -0.587785 -4.3439e-08 0.809017
    outer loop
      vertex 32.5 -4.23855e-07 7.47372
      vertex 34.3604 32.7296 8.82541
      vertex 33.3631 33.5344 8.10081
    endloop
  endfacet
  facet normal -0.587786 0 0.809017
    outer loop
      vertex 32.5 -4.23855e-07 7.47372
      vertex 33.3631 33.5344 8.10081
      vertex 32.5 34.6205 7.47372
    endloop
  endfacet
  facet normal -0.587785 0 0.809017
    outer loop
      vertex 34.3604 32.7296 8.82541
      vertex 32.5 -4.23855e-07 7.47372
      vertex 34.3604 -4.23855e-07 8.82541
    endloop
  endfacet
  facet normal -0.587785 0 0.809017
    outer loop
      vertex 32.5 80 7.47372
      vertex 34.3604 47.2704 8.82541
      vertex 34.3604 80 8.82541
    endloop
  endfacet
  facet normal -0.587785 4.3439e-08 0.809017
    outer loop
      vertex 34.3604 47.2704 8.82541
      vertex 32.5 80 7.47372
      vertex 33.3631 46.4656 8.10081
    endloop
  endfacet
  facet normal -0.587786 0 0.809017
    outer loop
      vertex 33.3631 46.4656 8.10081
      vertex 32.5 80 7.47372
      vertex 32.5 45.3795 7.47372
    endloop
  endfacet
  facet normal 0.951056 -0 0.309019
    outer loop
      vertex 16.6345 -4.23855e-07 13.5
      vertex 16.951 80 12.5259
      vertex 16.6345 80 13.5
    endloop
  endfacet
  facet normal 0.951056 0 0.309019
    outer loop
      vertex 16.951 80 12.5259
      vertex 16.6345 -4.23855e-07 13.5
      vertex 16.951 -4.23855e-07 12.5259
    endloop
  endfacet
  facet normal -0.207912 1.12975e-08 0.978148
    outer loop
      vertex 28.1498 -4.23855e-07 6.06026
      vertex 30.3992 36.7958 6.53838
      vertex 28.9972 37.713 6.24038
    endloop
  endfacet
  facet normal -0.207911 0 0.978148
    outer loop
      vertex 28.1498 -4.23855e-07 6.06026
      vertex 28.9972 37.713 6.24038
      vertex 28.1498 39.4267 6.06026
    endloop
  endfacet
  facet normal -0.207912 0 0.978148
    outer loop
      vertex 30.3992 36.7958 6.53838
      vertex 28.1498 -4.23855e-07 6.06026
      vertex 30.3992 -4.23855e-07 6.53838
    endloop
  endfacet
  facet normal -0.207912 0 0.978148
    outer loop
      vertex 28.1498 80 6.06026
      vertex 30.3992 43.2042 6.53838
      vertex 30.3992 80 6.53838
    endloop
  endfacet
  facet normal -0.207912 -1.12975e-08 0.978148
    outer loop
      vertex 30.3992 43.2042 6.53838
      vertex 28.1498 80 6.06026
      vertex 28.9972 42.287 6.24038
    endloop
  endfacet
  facet normal -0.207911 0 0.978148
    outer loop
      vertex 28.9972 42.287 6.24038
      vertex 28.1498 80 6.06026
      vertex 28.1498 40.5733 6.06026
    endloop
  endfacet
  facet normal 0.406737 0 0.913545
    outer loop
      vertex 21.5 80 7.47372
      vertex 23.6008 -4.23855e-07 6.53838
      vertex 23.6008 80 6.53838
    endloop
  endfacet
  facet normal 0.406737 0 0.913545
    outer loop
      vertex 23.6008 -4.23855e-07 6.53838
      vertex 21.5 80 7.47372
      vertex 21.5 -4.23855e-07 7.47372
    endloop
  endfacet
  facet normal 0.587785 0 0.809017
    outer loop
      vertex 19.6396 80 8.82541
      vertex 21.5 -4.23855e-07 7.47372
      vertex 21.5 80 7.47372
    endloop
  endfacet
  facet normal 0.587785 0 0.809017
    outer loop
      vertex 21.5 -4.23855e-07 7.47372
      vertex 19.6396 80 8.82541
      vertex 19.6396 -4.23855e-07 8.82541
    endloop
  endfacet
  facet normal 0.743145 -0 0.66913
    outer loop
      vertex 18.1008 -4.23855e-07 10.5344
      vertex 19.6396 80 8.82541
      vertex 18.1008 80 10.5344
    endloop
  endfacet
  facet normal 0.743145 0 0.66913
    outer loop
      vertex 19.6396 80 8.82541
      vertex 18.1008 -4.23855e-07 10.5344
      vertex 19.6396 -4.23855e-07 8.82541
    endloop
  endfacet
  facet normal -0.743145 0 0.669131
    outer loop
      vertex 34.3604 -4.23855e-07 8.82541
      vertex 35.0935 31.8254 9.63956
      vertex 34.3604 32.7296 8.82541
    endloop
  endfacet
  facet normal -0.743145 4.42003e-08 0.66913
    outer loop
      vertex 34.3604 -4.23855e-07 8.82541
      vertex 35.8992 31.1753 10.5344
      vertex 35.0935 31.8254 9.63956
    endloop
  endfacet
  facet normal -0.743145 0 0.66913
    outer loop
      vertex 35.8992 31.1753 10.5344
      vertex 34.3604 -4.23855e-07 8.82541
      vertex 35.8992 -4.23855e-07 10.5344
    endloop
  endfacet
  facet normal -0.743145 0 0.66913
    outer loop
      vertex 34.3604 80 8.82541
      vertex 35.8992 48.8247 10.5344
      vertex 35.8992 80 10.5344
    endloop
  endfacet
  facet normal -0.743145 -4.42003e-08 0.66913
    outer loop
      vertex 34.3604 80 8.82541
      vertex 35.0935 48.1746 9.63956
      vertex 35.8992 48.8247 10.5344
    endloop
  endfacet
  facet normal -0.743145 0 0.669131
    outer loop
      vertex 35.0935 48.1746 9.63956
      vertex 34.3604 80 8.82541
      vertex 34.3604 47.2704 8.82541
    endloop
  endfacet
  facet normal -0.406737 4.9568e-09 0.913545
    outer loop
      vertex 30.3992 -4.23855e-07 6.53838
      vertex 32.5 34.6205 7.47372
      vertex 31.3259 35.5259 6.951
    endloop
  endfacet
  facet normal -0.406736 0 0.913546
    outer loop
      vertex 30.3992 -4.23855e-07 6.53838
      vertex 31.3259 35.5259 6.951
      vertex 30.3992 36.7958 6.53838
    endloop
  endfacet
  facet normal -0.406737 0 0.913545
    outer loop
      vertex 32.5 34.6205 7.47372
      vertex 30.3992 -4.23855e-07 6.53838
      vertex 32.5 -4.23855e-07 7.47372
    endloop
  endfacet
  facet normal -0.406737 0 0.913545
    outer loop
      vertex 30.3992 80 6.53838
      vertex 32.5 45.3795 7.47372
      vertex 32.5 80 7.47372
    endloop
  endfacet
  facet normal -0.406737 -4.9568e-09 0.913545
    outer loop
      vertex 32.5 45.3795 7.47372
      vertex 30.3992 80 6.53838
      vertex 31.3259 44.4741 6.951
    endloop
  endfacet
  facet normal -0.406736 0 0.913546
    outer loop
      vertex 31.3259 44.4741 6.951
      vertex 30.3992 80 6.53838
      vertex 30.3992 43.2042 6.53838
    endloop
  endfacet
  facet normal 0.866025 -0 0.5
    outer loop
      vertex 16.951 -4.23855e-07 12.5259
      vertex 18.1008 80 10.5344
      vertex 16.951 80 12.5259
    endloop
  endfacet
  facet normal 0.866025 0 0.5
    outer loop
      vertex 18.1008 80 10.5344
      vertex 16.951 -4.23855e-07 12.5259
      vertex 18.1008 -4.23855e-07 10.5344
    endloop
  endfacet
  facet normal 0 0 1
    outer loop
      vertex 28.1498 80 6.06026
      vertex 27 40.5733 6.06026
      vertex 28.1498 40.5733 6.06026
    endloop
  endfacet
  facet normal 0 0 0
    outer loop
      vertex 27 40.5733 6.06026
      vertex 27 39.9804 6.06026
      vertex 27 40.0196 6.06026
    endloop
  endfacet
  facet normal 0 0 0
    outer loop
      vertex 27 40.5733 6.06026
      vertex 27 39.4267 6.06026
      vertex 27 39.9804 6.06026
    endloop
  endfacet
  facet normal 0 0 1
    outer loop
      vertex 27 40.5733 6.06026
      vertex 25.8502 80 6.06026
      vertex 27 39.4267 6.06026
    endloop
  endfacet
  facet normal -0 0 1
    outer loop
      vertex 25.8502 80 6.06026
      vertex 27 40.5733 6.06026
      vertex 28.1498 80 6.06026
    endloop
  endfacet
  facet normal -0 0 1
    outer loop
      vertex 27 39.4267 6.06026
      vertex 28.1498 -4.23855e-07 6.06026
      vertex 28.1498 39.4267 6.06026
    endloop
  endfacet
  facet normal 0 0 1
    outer loop
      vertex 27 39.4267 6.06026
      vertex 25.8502 -4.23855e-07 6.06026
      vertex 28.1498 -4.23855e-07 6.06026
    endloop
  endfacet
  facet normal 0 0 1
    outer loop
      vertex 25.8502 -4.23855e-07 6.06026
      vertex 27 39.4267 6.06026
      vertex 25.8502 80 6.06026
    endloop
  endfacet
  facet normal 0.207912 0 0.978148
    outer loop
      vertex 23.6008 80 6.53838
      vertex 25.8502 -4.23855e-07 6.06026
      vertex 25.8502 80 6.06026
    endloop
  endfacet
  facet normal 0.207912 0 0.978148
    outer loop
      vertex 25.8502 -4.23855e-07 6.06026
      vertex 23.6008 80 6.53838
      vertex 23.6008 -4.23855e-07 6.53838
    endloop
  endfacet
  facet normal 1 -0 0
    outer loop
      vertex 27 39.4267 6.06026
      vertex 27 40 6
      vertex 27 39.9804 6.06026
    endloop
  endfacet
  facet normal 0 0.104528 0.994522
    outer loop
      vertex 80 40 6
      vertex 28.9972 37.713 6.24038
      vertex 80 37.713 6.24038
    endloop
  endfacet
  facet normal 2.53016e-09 0.104528 0.994522
    outer loop
      vertex 80 40 6
      vertex 28.1498 39.4267 6.06026
      vertex 28.9972 37.713 6.24038
    endloop
  endfacet
  facet normal -0 0.104528 0.994522
    outer loop
      vertex 27 40 6
      vertex 28.1498 39.4267 6.06026
      vertex 80 40 6
    endloop
  endfacet
  facet normal 0 0.104528 0.994522
    outer loop
      vertex 28.1498 39.4267 6.06026
      vertex 27 40 6
      vertex 27 39.4267 6.06026
    endloop
  endfacet
  facet normal 0 -0.104528 0.994522
    outer loop
      vertex 28.9972 42.287 6.24038
      vertex 80 40 6
      vertex 80 42.287 6.24038
    endloop
  endfacet
  facet normal 2.53016e-09 -0.104528 0.994522
    outer loop
      vertex 28.1498 40.5733 6.06026
      vertex 80 40 6
      vertex 28.9972 42.287 6.24038
    endloop
  endfacet
  facet normal 0 -0.104528 0.994522
    outer loop
      vertex 27 40 6
      vertex 28.1498 40.5733 6.06026
      vertex 27 40.5733 6.06026
    endloop
  endfacet
  facet normal 0 -0.104528 0.994522
    outer loop
      vertex 28.1498 40.5733 6.06026
      vertex 27 40 6
      vertex 80 40 6
    endloop
  endfacet
  facet normal 0 0.66913 0.743145
    outer loop
      vertex 80 33.5344 8.10081
      vertex 35.0935 31.8254 9.63956
      vertex 80 31.8254 9.63956
    endloop
  endfacet
  facet normal -5.38088e-08 0.669131 0.743144
    outer loop
      vertex 80 33.5344 8.10081
      vertex 34.3604 32.7296 8.82541
      vertex 35.0935 31.8254 9.63956
    endloop
  endfacet
  facet normal 0 0.669129 0.743146
    outer loop
      vertex 34.3604 32.7296 8.82541
      vertex 80 33.5344 8.10081
      vertex 33.3631 33.5344 8.10081
    endloop
  endfacet
  facet normal 0 -0.669131 0.743145
    outer loop
      vertex 35.0935 48.1746 9.63956
      vertex 80 46.4656 8.10081
      vertex 80 48.1746 9.63956
    endloop
  endfacet
  facet normal -7.83459e-08 -0.669132 0.743144
    outer loop
      vertex 34.3604 47.2704 8.82541
      vertex 80 46.4656 8.10081
      vertex 35.0935 48.1746 9.63956
    endloop
  endfacet
  facet normal 0 -0.669129 0.743146
    outer loop
      vertex 80 46.4656 8.10081
      vertex 34.3604 47.2704 8.82541
      vertex 33.3631 46.4656 8.10081
    endloop
  endfacet
  facet normal 0 0.309017 0.951056
    outer loop
      vertex 80 37.713 6.24038
      vertex 31.3259 35.5259 6.951
      vertex 80 35.5259 6.951
    endloop
  endfacet
  facet normal -5.92257e-09 0.309017 0.951056
    outer loop
      vertex 80 37.713 6.24038
      vertex 30.3992 36.7958 6.53838
      vertex 31.3259 35.5259 6.951
    endloop
  endfacet
  facet normal 0 0.309017 0.951056
    outer loop
      vertex 30.3992 36.7958 6.53838
      vertex 80 37.713 6.24038
      vertex 28.9972 37.713 6.24038
    endloop
  endfacet
  facet normal 0 0.913545 0.406737
    outer loop
      vertex 80 30.4737 11.5
      vertex 37.3655 29.5833 13.5
      vertex 80 29.5833 13.5
    endloop
  endfacet
  facet normal -1.08782e-08 0.913546 0.406736
    outer loop
      vertex 37.3655 29.5833 13.5
      vertex 80 30.4737 11.5
      vertex 37.049 30.017 12.5259
    endloop
  endfacet
  facet normal 0 0.913545 0.406737
    outer loop
      vertex 37.049 30.017 12.5259
      vertex 80 30.4737 11.5
      vertex 36.4567 30.4737 11.5
    endloop
  endfacet
  facet normal 0 -0.5 0.866025
    outer loop
      vertex 33.3631 46.4656 8.10081
      vertex 80 44.4741 6.951
      vertex 80 46.4656 8.10081
    endloop
  endfacet
  facet normal -1.20301e-08 -0.5 0.866025
    outer loop
      vertex 32.5 45.3795 7.47372
      vertex 80 44.4741 6.951
      vertex 33.3631 46.4656 8.10081
    endloop
  endfacet
  facet normal 0 -0.5 0.866026
    outer loop
      vertex 80 44.4741 6.951
      vertex 32.5 45.3795 7.47372
      vertex 31.3259 44.4741 6.951
    endloop
  endfacet
  facet normal 1 0 0
    outer loop
      vertex 27 40 6
      vertex 27 40.5733 6.06026
      vertex 27 40.0196 6.06026
    endloop
  endfacet
  facet normal 0 0.809017 0.587785
    outer loop
      vertex 80 31.8254 9.63956
      vertex 36.4567 30.4737 11.5
      vertex 80 30.4737 11.5
    endloop
  endfacet
  facet normal -2.60306e-08 0.809017 0.587785
    outer loop
      vertex 36.4567 30.4737 11.5
      vertex 80 31.8254 9.63956
      vertex 35.8992 31.1753 10.5344
    endloop
  endfacet
  facet normal 0 0.809017 0.587786
    outer loop
      vertex 35.8992 31.1753 10.5344
      vertex 80 31.8254 9.63956
      vertex 35.0935 31.8254 9.63956
    endloop
  endfacet
  facet normal 1 0 -0
    outer loop
      vertex 27 40 6
      vertex 27 40.0196 6.06026
      vertex 27 39.9804 6.06026
    endloop
  endfacet
  facet normal 0 -0.309017 0.951056
    outer loop
      vertex 31.3259 44.4741 6.951
      vertex 80 42.287 6.24038
      vertex 80 44.4741 6.951
    endloop
  endfacet
  facet normal -5.92257e-09 -0.309017 0.951056
    outer loop
      vertex 30.3992 43.2042 6.53838
      vertex 80 42.287 6.24038
      vertex 31.3259 44.4741 6.951
    endloop
  endfacet
  facet normal 0 -0.309017 0.951056
    outer loop
      vertex 80 42.287 6.24038
      vertex 30.3992 43.2042 6.53838
      vertex 28.9972 42.287 6.24038
    endloop
  endfacet
  facet normal -6.06152e-08 -0.809017 0.587785
    outer loop
      vertex 80 48.1746 9.63956
      vertex 36.4567 49.5263 11.5
      vertex 35.8992 48.8247 10.5344
    endloop
  endfacet
  facet normal 0 -0.809016 0.587787
    outer loop
      vertex 80 48.1746 9.63956
      vertex 35.8992 48.8247 10.5344
      vertex 35.0935 48.1746 9.63956
    endloop
  endfacet
  facet normal 0 -0.809017 0.587786
    outer loop
      vertex 36.4567 49.5263 11.5
      vertex 80 48.1746 9.63956
      vertex 80 49.5263 11.5
    endloop
  endfacet
  facet normal 7.17739e-08 -0.913545 0.406738
    outer loop
      vertex 80 49.5263 11.5
      vertex 37.3655 50.4167 13.5
      vertex 37.049 49.983 12.5259
    endloop
  endfacet
  facet normal 0 -0.913546 0.406735
    outer loop
      vertex 80 49.5263 11.5
      vertex 37.049 49.983 12.5259
      vertex 36.4567 49.5263 11.5
    endloop
  endfacet
  facet normal 0 -0.913545 0.406737
    outer loop
      vertex 37.3655 50.4167 13.5
      vertex 80 49.5263 11.5
      vertex 80 50.4167 13.5
    endloop
  endfacet
  facet normal 0 0.5 0.866025
    outer loop
      vertex 80 35.5259 6.951
      vertex 33.3631 33.5344 8.10081
      vertex 80 33.5344 8.10081
    endloop
  endfacet
  facet normal -1.20301e-08 0.5 0.866025
    outer loop
      vertex 80 35.5259 6.951
      vertex 32.5 34.6205 7.47372
      vertex 33.3631 33.5344 8.10081
    endloop
  endfacet
  facet normal 0 0.5 0.866026
    outer loop
      vertex 32.5 34.6205 7.47372
      vertex 80 35.5259 6.951
      vertex 31.3259 35.5259 6.951
    endloop
  endfacet
  facet normal 0.951057 0.309017 0
    outer loop
      vertex 5.5325 18.2073 13.5
      vertex 4.95 20 0
      vertex 4.95 20 13.5
    endloop
  endfacet
  facet normal 0.951057 0.309017 0
    outer loop
      vertex 4.95 20 0
      vertex 5.5325 18.2073 13.5
      vertex 5.5325 18.2073 0
    endloop
  endfacet
  facet normal -0.587786 -0.809017 0
    outer loop
      vertex 8.9425 22.9007 0
      vertex 10.4675 21.7927 13.5
      vertex 8.9425 22.9007 13.5
    endloop
  endfacet
  facet normal -0.587786 -0.809017 -0
    outer loop
      vertex 10.4675 21.7927 13.5
      vertex 8.9425 22.9007 0
      vertex 10.4675 21.7927 0
    endloop
  endfacet
  facet normal -0.951057 -0.309017 0
    outer loop
      vertex 11.05 20 0
      vertex 10.4675 21.7927 13.5
      vertex 10.4675 21.7927 0
    endloop
  endfacet
  facet normal -0.951057 -0.309017 0
    outer loop
      vertex 10.4675 21.7927 13.5
      vertex 11.05 20 0
      vertex 11.05 20 13.5
    endloop
  endfacet
  facet normal 0 -1 0
    outer loop
      vertex 7.0575 22.9007 0
      vertex 8.9425 22.9007 13.5
      vertex 7.0575 22.9007 13.5
    endloop
  endfacet
  facet normal 0 -1 -0
    outer loop
      vertex 8.9425 22.9007 13.5
      vertex 7.0575 22.9007 0
      vertex 8.9425 22.9007 0
    endloop
  endfacet
  facet normal 0 1 -0
    outer loop
      vertex 8.9425 17.0993 0
      vertex 7.0575 17.0993 13.5
      vertex 8.9425 17.0993 13.5
    endloop
  endfacet
  facet normal 0 1 0
    outer loop
      vertex 7.0575 17.0993 13.5
      vertex 8.9425 17.0993 0
      vertex 7.0575 17.0993 0
    endloop
  endfacet
  facet normal -0.951057 0.309017 0
    outer loop
      vertex 10.4675 18.2073 0
      vertex 11.05 20 13.5
      vertex 11.05 20 0
    endloop
  endfacet
  facet normal -0.951057 0.309017 0
    outer loop
      vertex 11.05 20 13.5
      vertex 10.4675 18.2073 0
      vertex 10.4675 18.2073 13.5
    endloop
  endfacet
  facet normal 0.587786 -0.809017 0
    outer loop
      vertex 5.5325 21.7927 0
      vertex 7.0575 22.9007 13.5
      vertex 5.5325 21.7927 13.5
    endloop
  endfacet
  facet normal 0.587786 -0.809017 0
    outer loop
      vertex 7.0575 22.9007 13.5
      vertex 5.5325 21.7927 0
      vertex 7.0575 22.9007 0
    endloop
  endfacet
  facet normal 0.951057 -0.309017 0
    outer loop
      vertex 4.95 20 13.5
      vertex 5.5325 21.7927 0
      vertex 5.5325 21.7927 13.5
    endloop
  endfacet
  facet normal 0.951057 -0.309017 0
    outer loop
      vertex 5.5325 21.7927 0
      vertex 4.95 20 13.5
      vertex 4.95 20 0
    endloop
  endfacet
  facet normal -0.587785 0.809017 0
    outer loop
      vertex 10.4675 18.2073 0
      vertex 8.9425 17.0993 13.5
      vertex 10.4675 18.2073 13.5
    endloop
  endfacet
  facet normal -0.587785 0.809017 0
    outer loop
      vertex 8.9425 17.0993 13.5
      vertex 10.4675 18.2073 0
      vertex 8.9425 17.0993 0
    endloop
  endfacet
  facet normal 0.587785 0.809017 -0
    outer loop
      vertex 7.0575 17.0993 0
      vertex 5.5325 18.2073 13.5
      vertex 7.0575 17.0993 13.5
    endloop
  endfacet
  facet normal 0.587785 0.809017 0
    outer loop
      vertex 5.5325 18.2073 13.5
      vertex 7.0575 17.0993 0
      vertex 5.5325 18.2073 0
    endloop
  endfacet
  facet normal 0.951057 0.309017 0
    outer loop
      vertex 5.5325 58.2073 13.5
      vertex 4.95 60 0
      vertex 4.95 60 13.5
    endloop
  endfacet
  facet normal 0.951057 0.309017 0
    outer loop
      vertex 4.95 60 0
      vertex 5.5325 58.2073 13.5
      vertex 5.5325 58.2073 0
    endloop
  endfacet
  facet normal -0.587786 -0.809017 0
    outer loop
      vertex 8.9425 62.9007 0
      vertex 10.4675 61.7927 13.5
      vertex 8.9425 62.9007 13.5
    endloop
  endfacet
  facet normal -0.587786 -0.809017 -0
    outer loop
      vertex 10.4675 61.7927 13.5
      vertex 8.9425 62.9007 0
      vertex 10.4675 61.7927 0
    endloop
  endfacet
  facet normal -0.951057 -0.309017 0
    outer loop
      vertex 11.05 60 0
      vertex 10.4675 61.7927 13.5
      vertex 10.4675 61.7927 0
    endloop
  endfacet
  facet normal -0.951057 -0.309017 0
    outer loop
      vertex 10.4675 61.7927 13.5
      vertex 11.05 60 0
      vertex 11.05 60 13.5
    endloop
  endfacet
  facet normal 0 -1 0
    outer loop
      vertex 7.0575 62.9007 0
      vertex 8.9425 62.9007 13.5
      vertex 7.0575 62.9007 13.5
    endloop
  endfacet
  facet normal 0 -1 -0
    outer loop
      vertex 8.9425 62.9007 13.5
      vertex 7.0575 62.9007 0
      vertex 8.9425 62.9007 0
    endloop
  endfacet
  facet normal 0 1 -0
    outer loop
      vertex 8.9425 57.0993 0
      vertex 7.0575 57.0993 13.5
      vertex 8.9425 57.0993 13.5
    endloop
  endfacet
  facet normal 0 1 0
    outer loop
      vertex 7.0575 57.0993 13.5
      vertex 8.9425 57.0993 0
      vertex 7.0575 57.0993 0
    endloop
  endfacet
  facet normal -0.951057 0.309017 0
    outer loop
      vertex 10.4675 58.2073 0
      vertex 11.05 60 13.5
      vertex 11.05 60 0
    endloop
  endfacet
  facet normal -0.951057 0.309017 0
    outer loop
      vertex 11.05 60 13.5
      vertex 10.4675 58.2073 0
      vertex 10.4675 58.2073 13.5
    endloop
  endfacet
  facet normal 0.587786 -0.809017 0
    outer loop
      vertex 5.5325 61.7927 0
      vertex 7.0575 62.9007 13.5
      vertex 5.5325 61.7927 13.5
    endloop
  endfacet
  facet normal 0.587786 -0.809017 0
    outer loop
      vertex 7.0575 62.9007 13.5
      vertex 5.5325 61.7927 0
      vertex 7.0575 62.9007 0
    endloop
  endfacet
  facet normal 0.951057 -0.309017 0
    outer loop
      vertex 4.95 60 13.5
      vertex 5.5325 61.7927 0
      vertex 5.5325 61.7927 13.5
    endloop
  endfacet
  facet normal 0.951057 -0.309017 0
    outer loop
      vertex 5.5325 61.7927 0
      vertex 4.95 60 13.5
      vertex 4.95 60 0
    endloop
  endfacet
  facet normal -0.587786 0.809017 0
    outer loop
      vertex 10.4675 58.2073 0
      vertex 8.9425 57.0993 13.5
      vertex 10.4675 58.2073 13.5
    endloop
  endfacet
  facet normal -0.587786 0.809017 0
    outer loop
      vertex 8.9425 57.0993 13.5
      vertex 10.4675 58.2073 0
      vertex 8.9425 57.0993 0
    endloop
  endfacet
  facet normal 0.587786 0.809017 -0
    outer loop
      vertex 7.0575 57.0993 0
      vertex 5.5325 58.2073 13.5
      vertex 7.0575 57.0993 13.5
    endloop
  endfacet
  facet normal 0.587786 0.809017 0
    outer loop
      vertex 5.5325 58.2073 13.5
      vertex 7.0575 57.0993 0
      vertex 5.5325 58.2073 0
    endloop
  endfacet
  facet normal 0.951057 0.309016 0
    outer loop
      vertex 47.5325 18.2073 13.5
      vertex 46.95 20 0
      vertex 46.95 20 13.5
    endloop
  endfacet
  facet normal 0.951057 0.309016 0
    outer loop
      vertex 46.95 20 0
      vertex 47.5325 18.2073 13.5
      vertex 47.5325 18.2073 0
    endloop
  endfacet
  facet normal -0.587785 -0.809017 0
    outer loop
      vertex 50.9425 22.9007 0
      vertex 52.4675 21.7927 13.5
      vertex 50.9425 22.9007 13.5
    endloop
  endfacet
  facet normal -0.587785 -0.809017 -0
    outer loop
      vertex 52.4675 21.7927 13.5
      vertex 50.9425 22.9007 0
      vertex 52.4675 21.7927 0
    endloop
  endfacet
  facet normal -0.951057 -0.309016 0
    outer loop
      vertex 53.05 20 0
      vertex 52.4675 21.7927 13.5
      vertex 52.4675 21.7927 0
    endloop
  endfacet
  facet normal -0.951057 -0.309016 0
    outer loop
      vertex 52.4675 21.7927 13.5
      vertex 53.05 20 0
      vertex 53.05 20 13.5
    endloop
  endfacet
  facet normal 0 -1 0
    outer loop
      vertex 49.0575 22.9007 0
      vertex 50.9425 22.9007 13.5
      vertex 49.0575 22.9007 13.5
    endloop
  endfacet
  facet normal 0 -1 -0
    outer loop
      vertex 50.9425 22.9007 13.5
      vertex 49.0575 22.9007 0
      vertex 50.9425 22.9007 0
    endloop
  endfacet
  facet normal 0 1 -0
    outer loop
      vertex 50.9425 17.0993 0
      vertex 49.0575 17.0993 13.5
      vertex 50.9425 17.0993 13.5
    endloop
  endfacet
  facet normal 0 1 0
    outer loop
      vertex 49.0575 17.0993 13.5
      vertex 50.9425 17.0993 0
      vertex 49.0575 17.0993 0
    endloop
  endfacet
  facet normal -0.951057 0.309016 0
    outer loop
      vertex 52.4675 18.2073 0
      vertex 53.05 20 13.5
      vertex 53.05 20 0
    endloop
  endfacet
  facet normal -0.951057 0.309016 0
    outer loop
      vertex 53.05 20 13.5
      vertex 52.4675 18.2073 0
      vertex 52.4675 18.2073 13.5
    endloop
  endfacet
  facet normal 0.587785 -0.809017 0
    outer loop
      vertex 47.5325 21.7927 0
      vertex 49.0575 22.9007 13.5
      vertex 47.5325 21.7927 13.5
    endloop
  endfacet
  facet normal 0.587785 -0.809017 0
    outer loop
      vertex 49.0575 22.9007 13.5
      vertex 47.5325 21.7927 0
      vertex 49.0575 22.9007 0
    endloop
  endfacet
  facet normal 0.951057 -0.309016 0
    outer loop
      vertex 46.95 20 13.5
      vertex 47.5325 21.7927 0
      vertex 47.5325 21.7927 13.5
    endloop
  endfacet
  facet normal 0.951057 -0.309016 0
    outer loop
      vertex 47.5325 21.7927 0
      vertex 46.95 20 13.5
      vertex 46.95 20 0
    endloop
  endfacet
  facet normal -0.587785 0.809017 0
    outer loop
      vertex 52.4675 18.2073 0
      vertex 50.9425 17.0993 13.5
      vertex 52.4675 18.2073 13.5
    endloop
  endfacet
  facet normal -0.587785 0.809017 0
    outer loop
      vertex 50.9425 17.0993 13.5
      vertex 52.4675 18.2073 0
      vertex 50.9425 17.0993 0
    endloop
  endfacet
  facet normal 0.587785 0.809017 -0
    outer loop
      vertex 49.0575 17.0993 0
      vertex 47.5325 18.2073 13.5
      vertex 49.0575 17.0993 13.5
    endloop
  endfacet
  facet normal 0.587785 0.809017 0
    outer loop
      vertex 47.5325 18.2073 13.5
      vertex 49.0575 17.0993 0
      vertex 47.5325 18.2073 0
    endloop
  endfacet
  facet normal 0.951057 0.309016 0
    outer loop
      vertex 47.5325 58.2073 13.5
      vertex 46.95 60 0
      vertex 46.95 60 13.5
    endloop
  endfacet
  facet normal 0.951057 0.309016 0
    outer loop
      vertex 46.95 60 0
      vertex 47.5325 58.2073 13.5
      vertex 47.5325 58.2073 0
    endloop
  endfacet
  facet normal -0.587785 -0.809017 0
    outer loop
      vertex 50.9425 62.9007 0
      vertex 52.4675 61.7927 13.5
      vertex 50.9425 62.9007 13.5
    endloop
  endfacet
  facet normal -0.587785 -0.809017 -0
    outer loop
      vertex 52.4675 61.7927 13.5
      vertex 50.9425 62.9007 0
      vertex 52.4675 61.7927 0
    endloop
  endfacet
  facet normal -0.951057 -0.309016 0
    outer loop
      vertex 53.05 60 0
      vertex 52.4675 61.7927 13.5
      vertex 52.4675 61.7927 0
    endloop
  endfacet
  facet normal -0.951057 -0.309016 0
    outer loop
      vertex 52.4675 61.7927 13.5
      vertex 53.05 60 0
      vertex 53.05 60 13.5
    endloop
  endfacet
  facet normal 0 -1 0
    outer loop
      vertex 49.0575 62.9007 0
      vertex 50.9425 62.9007 13.5
      vertex 49.0575 62.9007 13.5
    endloop
  endfacet
  facet normal 0 -1 -0
    outer loop
      vertex 50.9425 62.9007 13.5
      vertex 49.0575 62.9007 0
      vertex 50.9425 62.9007 0
    endloop
  endfacet
  facet normal 0 1 -0
    outer loop
      vertex 50.9425 57.0993 0
      vertex 49.0575 57.0993 13.5
      vertex 50.9425 57.0993 13.5
    endloop
  endfacet
  facet normal 0 1 0
    outer loop
      vertex 49.0575 57.0993 13.5
      vertex 50.9425 57.0993 0
      vertex 49.0575 57.0993 0
    endloop
  endfacet
  facet normal -0.951057 0.309016 0
    outer loop
      vertex 52.4675 58.2073 0
      vertex 53.05 60 13.5
      vertex 53.05 60 0
    endloop
  endfacet
  facet normal -0.951057 0.309016 0
    outer loop
      vertex 53.05 60 13.5
      vertex 52.4675 58.2073 0
      vertex 52.4675 58.2073 13.5
    endloop
  endfacet
  facet normal 0.587785 -0.809017 0
    outer loop
      vertex 47.5325 61.7927 0
      vertex 49.0575 62.9007 13.5
      vertex 47.5325 61.7927 13.5
    endloop
  endfacet
  facet normal 0.587785 -0.809017 0
    outer loop
      vertex 49.0575 62.9007 13.5
      vertex 47.5325 61.7927 0
      vertex 49.0575 62.9007 0
    endloop
  endfacet
  facet normal 0.951057 -0.309016 0
    outer loop
      vertex 46.95 60 13.5
      vertex 47.5325 61.7927 0
      vertex 47.5325 61.7927 13.5
    endloop
  endfacet
  facet normal 0.951057 -0.309016 0
    outer loop
      vertex 47.5325 61.7927 0
      vertex 46.95 60 13.5
      vertex 46.95 60 0
    endloop
  endfacet
  facet normal -0.587785 0.809017 0
    outer loop
      vertex 52.4675 58.2073 0
      vertex 50.9425 57.0993 13.5
      vertex 52.4675 58.2073 13.5
    endloop
  endfacet
  facet normal -0.587785 0.809017 0
    outer loop
      vertex 50.9425 57.0993 13.5
      vertex 52.4675 58.2073 0
      vertex 50.9425 57.0993 0
    endloop
  endfacet
  facet normal 0.587785 0.809017 -0
    outer loop
      vertex 49.0575 57.0993 0
      vertex 47.5325 58.2073 13.5
      vertex 49.0575 57.0993 13.5
    endloop
  endfacet
  facet normal 0.587785 0.809017 0
    outer loop
      vertex 47.5325 58.2073 13.5
      vertex 49.0575 57.0993 0
      vertex 47.5325 58.2073 0
    endloop
  endfacet
endsolid OpenSCAD_Model
